<!DOCTYPE score-partwise PUBLIC "-//Recordare//DTD MusicXML 4.0 Partwise//EN" "http://www.musicxml.org/dtds/partwise.dtd">
<score-partwise version="4.0">
  <work>
    <work-title/>
  </work>
  <movement-title/>
  <identification>
    <creator type="composer"/>
    <rights>CollabScore project</rights>
    <encoding>
      <encoding-date>2025-05-14</encoding-date>
      <software>music21 v.9.5.0</software>
      <software>DMOS/Collabscore OMR</software>
    </encoding>
  </identification>
  <defaults>
    <scaling>
      <millimeters>7</millimeters>
      <tenths>40</tenths>
    </scaling>
  </defaults>
  <part-list>
    <score-part id="part2">
      <part-name>CHANT</part-name>
      <part-abbreviation>part2</part-abbreviation>
      <score-instrument id="Id08f888fe3d57d7a0ca21fb4706b3fde">
        <instrument-name>CHANT</instrument-name>
        <instrument-abbreviation>part2</instrument-abbreviation>
      </score-instrument>
      <midi-instrument id="Id08f888fe3d57d7a0ca21fb4706b3fde">
        <midi-channel>1</midi-channel>
        <midi-program>1</midi-program>
      </midi-instrument>
    </score-part>
    <score-part id="part1">
      <part-name>PIANO</part-name>
      <part-abbreviation>part1</part-abbreviation>
      <score-instrument id="I83734e1569148eb25057a7a388bcaecf">
        <instrument-name>PIANO</instrument-name>
        <instrument-abbreviation>part1</instrument-abbreviation>
      </score-instrument>
      <midi-instrument id="I83734e1569148eb25057a7a388bcaecf">
        <midi-channel>2</midi-channel>
        <midi-program>1</midi-program>
      </midi-instrument>
    </score-part>
  </part-list>
  <!--=========================== Part 1 ===========================-->
  <part id="part2">
    <!--========================= Measure 1 ==========================-->
    <measure id="m1-part2" implicit="no" number="1">
      <attributes>
        <divisions>10080</divisions>
        <key id="ks_789_956">
          <fifths>-2</fifths>
        </key>
        <time id="ts_861_985">
          <beats>2</beats>
          <beat-type>4</beat-type>
        </time>
        <clef id="clef_705_944">
          <sign>G</sign>
          <line>2</line>
        </clef>
      </attributes>
      <note color="#13819E" id="nh_967_1026">
        <pitch>
          <step>B</step>
          <alter>-1</alter>
          <octave>4</octave>
        </pitch>
        <duration>10080</duration>
        <type>quarter</type>
        <stem>up</stem>
        <notehead color="#13819E" parentheses="no">normal</notehead>
        <notations>
          <articulations>
            <accent placement="above"/>
          </articulations>
        </notations>
        <lyric name="1" number="1">
          <syllabic>begin</syllabic>
          <text>hon</text>
        </lyric>
      </note>
      <note color="#13819E" id="nh_1141_1040">
        <pitch>
          <step>A</step>
          <octave>4</octave>
        </pitch>
        <duration>10080</duration>
        <type>quarter</type>
        <stem>up</stem>
        <notehead color="#13819E" parentheses="no">normal</notehead>
        <lyric name="1" number="1">
          <syllabic>single</syllabic>
          <text>te;</text>
        </lyric>
      </note>
    </measure>
    <!--========================= Measure 2 ==========================-->
    <measure id="m2-part2" implicit="no" number="2">
      <attributes>
        <time id="ts_1367_1011" symbol="common">
          <beats>4</beats>
          <beat-type>4</beat-type>
        </time>
      </attributes>
      <note color="#13819E" id="F2part2M21E1">
        <rest/>
        <duration>5040</duration>
        <type>eighth</type>
      </note>
      <note color="#13819E" id="nh_1585_1055">
        <pitch>
          <step>G</step>
          <octave>4</octave>
        </pitch>
        <duration>5040</duration>
        <type>eighth</type>
        <stem>up</stem>
        <notehead color="#13819E" parentheses="no">normal</notehead>
        <lyric name="1" number="1">
          <syllabic>single</syllabic>
          <text>Quand</text>
        </lyric>
      </note>
      <note color="#13819E" id="nh_1709_1026">
        <pitch>
          <step>B</step>
          <alter>0</alter>
          <octave>4</octave>
        </pitch>
        <duration>5040</duration>
        <type>eighth</type>
        <accidental>natural</accidental>
        <stem>down</stem>
        <notehead color="#13819E" parentheses="no">normal</notehead>
        <lyric name="1" number="1">
          <syllabic>single</syllabic>
          <text>la</text>
        </lyric>
      </note>
      <note color="#13819E" id="nh_1811_996">
        <pitch>
          <step>D</step>
          <octave>5</octave>
        </pitch>
        <duration>5040</duration>
        <type>eighth</type>
        <stem>down</stem>
        <notehead color="#13819E" parentheses="no">normal</notehead>
        <lyric name="1" number="1">
          <syllabic>begin</syllabic>
          <text>ru</text>
        </lyric>
      </note>
      <note color="#13819E" id="nh_1935_964">
        <pitch>
          <step>F</step>
          <octave>5</octave>
        </pitch>
        <duration>5040</duration>
        <type>eighth</type>
        <stem>down</stem>
        <notehead color="#13819E" parentheses="no">normal</notehead>
        <lyric name="1" number="1">
          <syllabic>single</syllabic>
          <text>meur</text>
        </lyric>
      </note>
      <note color="#13819E" id="nh_2059_979">
        <pitch>
          <step>E</step>
          <alter>-1</alter>
          <octave>5</octave>
        </pitch>
        <duration>5040</duration>
        <type>eighth</type>
        <stem>down</stem>
        <notehead color="#13819E" parentheses="no">normal</notehead>
        <lyric name="1" number="1">
          <syllabic>single</syllabic>
          <text>sur</text>
        </lyric>
      </note>
      <note color="#13819E" id="nh_2185_994">
        <pitch>
          <step>D</step>
          <octave>5</octave>
        </pitch>
        <duration>5040</duration>
        <type>eighth</type>
        <stem>down</stem>
        <notehead color="#13819E" parentheses="no">normal</notehead>
        <lyric name="1" number="1">
          <syllabic>single</syllabic>
          <text>tous</text>
        </lyric>
      </note>
      <note color="#13819E" id="nh_2320_1009">
        <pitch>
          <step>C</step>
          <octave>5</octave>
        </pitch>
        <duration>5040</duration>
        <type>eighth</type>
        <stem>down</stem>
        <notehead color="#13819E" parentheses="no">normal</notehead>
        <lyric name="1" number="1">
          <syllabic>begin</syllabic>
          <text>con</text>
        </lyric>
      </note>
    </measure>
    <!--========================= Measure 3 ==========================-->
    <measure id="m3-part2" implicit="no" number="3">
      <note color="#13819E" id="nh_2476_1020">
        <pitch>
          <step>B</step>
          <alter>0</alter>
          <octave>4</octave>
        </pitch>
        <duration>20160</duration>
        <type>half</type>
        <accidental>natural</accidental>
        <stem>down</stem>
        <notehead color="#13819E" parentheses="no">normal</notehead>
        <lyric name="1" number="1">
          <syllabic>single</syllabic>
          <text>certs</text>
        </lyric>
      </note>
      <note color="#13819E" id="F2part2M31E1">
        <rest/>
        <duration>5040</duration>
        <type>eighth</type>
      </note>
      <note color="#13819E" id="nh_2920_1009">
        <pitch>
          <step>C</step>
          <octave>5</octave>
        </pitch>
        <duration>5040</duration>
        <type>eighth</type>
        <stem>down</stem>
        <notehead color="#13819E" parentheses="no">normal</notehead>
        <lyric name="1" number="1">
          <syllabic>begin</syllabic>
          <text>E</text>
        </lyric>
      </note>
      <note color="#13819E" id="nh_3023_1023">
        <pitch>
          <step>B</step>
          <alter>0</alter>
          <octave>4</octave>
        </pitch>
        <duration>5040</duration>
        <type>eighth</type>
        <accidental>natural</accidental>
        <stem>down</stem>
        <notehead color="#13819E" parentheses="no">normal</notehead>
        <lyric name="1" number="1">
          <syllabic>single</syllabic>
          <text>touffe</text>
        </lyric>
      </note>
      <note color="#13819E" id="nh_3147_1008">
        <pitch>
          <step>C</step>
          <octave>5</octave>
        </pitch>
        <duration>5040</duration>
        <type>eighth</type>
        <stem>down</stem>
        <notehead color="#13819E" parentheses="no">normal</notehead>
        <lyric name="1" number="1">
          <syllabic>single</syllabic>
          <text>et</text>
        </lyric>
      </note>
    </measure>
    <!--========================= Measure 4 ==========================-->
    <measure id="m4-part2" implicit="no" number="4">
      <attributes>
        <time id="ts_3310_980">
          <beats>2</beats>
          <beat-type>4</beat-type>
        </time>
      </attributes>
      <note color="#13819E" id="nh_3395_1007">
        <pitch>
          <step>C</step>
          <alter>1</alter>
          <octave>5</octave>
        </pitch>
        <duration>10080</duration>
        <type>quarter</type>
        <accidental>sharp</accidental>
        <stem>down</stem>
        <notehead color="#13819E" parentheses="no">normal</notehead>
        <lyric name="1" number="1">
          <syllabic>begin</syllabic>
          <text>mon</text>
        </lyric>
      </note>
      <note color="#13819E" id="nh_3566_993">
        <pitch>
          <step>D</step>
          <octave>5</octave>
        </pitch>
        <duration>10080</duration>
        <type>quarter</type>
        <stem>down</stem>
        <notehead color="#13819E" parentheses="no">normal</notehead>
        <lyric name="1" number="1">
          <syllabic>single</syllabic>
          <text>te,</text>
        </lyric>
      </note>
    </measure>
    <!--========================= Measure 5 ==========================-->
    <measure id="m5-part2" implicit="no" number="5">
      <print new-system="yes"/>
      <attributes>
        <time id="ts_860_2141" symbol="common">
          <beats>4</beats>
          <beat-type>4</beat-type>
        </time>
      </attributes>
      <note color="#13819E" id="F2part2M51E1">
        <rest/>
        <duration>5040</duration>
        <type>eighth</type>
      </note>
      <direction placement="above">
        <direction-type>
          <dynamics default-x="-36" default-y="-80">
            <f/>
          </dynamics>
        </direction-type>
        <sound dynamics="88"/>
      </direction>
      <note color="#13819E" id="nh_1086_2125">
        <pitch>
          <step>D</step>
          <octave>5</octave>
        </pitch>
        <duration>5040</duration>
        <type>eighth</type>
        <stem>down</stem>
        <notehead color="#13819E" parentheses="no">normal</notehead>
        <lyric name="1" number="1">
          <syllabic>single</syllabic>
          <text>Quand</text>
        </lyric>
      </note>
      <note color="#13819E" id="nh_1237_2139">
        <pitch>
          <step>C</step>
          <alter>0</alter>
          <octave>5</octave>
        </pitch>
        <duration>5040</duration>
        <type>eighth</type>
        <accidental>natural</accidental>
        <stem>down</stem>
        <notehead color="#13819E" parentheses="no">normal</notehead>
        <lyric name="1" number="1">
          <syllabic>single</syllabic>
          <text>c'est</text>
        </lyric>
      </note>
      <note color="#13819E" id="nh_1371_2152">
        <pitch>
          <step>B</step>
          <alter>-1</alter>
          <octave>4</octave>
        </pitch>
        <duration>5040</duration>
        <type>eighth</type>
        <stem>down</stem>
        <notehead color="#13819E" parentheses="no">normal</notehead>
        <lyric name="1" number="1">
          <syllabic>single</syllabic>
          <text>le</text>
        </lyric>
      </note>
      <note color="#13819E" id="nh_1492_2107">
        <pitch>
          <step>E</step>
          <alter>-1</alter>
          <octave>5</octave>
        </pitch>
        <duration>15120</duration>
        <type>quarter</type>
        <dot/>
        <stem>down</stem>
        <notehead color="#13819E" parentheses="no">normal</notehead>
        <lyric name="1" number="1">
          <syllabic>begin</syllabic>
          <text>r&#232;</text>
        </lyric>
      </note>
      <note color="#13819E" id="nh_1855_2122">
        <pitch>
          <step>D</step>
          <octave>5</octave>
        </pitch>
        <duration>5040</duration>
        <type>eighth</type>
        <stem>down</stem>
        <notehead color="#13819E" parentheses="no">normal</notehead>
        <lyric name="1" number="1">
          <syllabic>single</syllabic>
          <text>gne</text>
        </lyric>
      </note>
    </measure>
    <!--========================= Measure 6 ==========================-->
    <measure id="m6-part2" implicit="no" number="6">
      <note color="#13819E" id="nh_2038_2122">
        <pitch>
          <step>D</step>
          <octave>5</octave>
        </pitch>
        <duration>15120</duration>
        <type>quarter</type>
        <dot/>
        <stem>down</stem>
        <notehead color="#13819E" parentheses="no">normal</notehead>
        <lyric name="1" number="1">
          <syllabic>single</syllabic>
          <text>du</text>
        </lyric>
      </note>
      <note color="#13819E" id="nh_2399_2136">
        <pitch>
          <step>C</step>
          <octave>5</octave>
        </pitch>
        <duration>5040</duration>
        <type>eighth</type>
        <stem>down</stem>
        <notehead color="#13819E" parentheses="no">normal</notehead>
        <lyric name="1" number="1">
          <syllabic>begin</syllabic>
          <text>m&#233;</text>
        </lyric>
      </note>
      <note color="#13819E" id="nh_2532_2149">
        <pitch>
          <step>B</step>
          <alter>-1</alter>
          <octave>4</octave>
        </pitch>
        <duration>5040</duration>
        <type>eighth</type>
        <stem>down</stem>
        <notehead color="#13819E" parentheses="no">normal</notehead>
        <lyric name="1" number="1">
          <syllabic>single</syllabic>
          <text>chant</text>
        </lyric>
      </note>
      <note color="#13819E" id="nh_2654_2192">
        <pitch>
          <step>F</step>
          <octave>4</octave>
        </pitch>
        <duration>5040</duration>
        <type>eighth</type>
        <stem>up</stem>
        <notehead color="#13819E" parentheses="no">normal</notehead>
        <lyric name="1" number="1">
          <syllabic>single</syllabic>
          <text>Ou</text>
        </lyric>
      </note>
      <note color="#13819E" id="nh_2778_2163">
        <pitch>
          <step>A</step>
          <alter>-1</alter>
          <octave>4</octave>
        </pitch>
        <duration>5040</duration>
        <type>eighth</type>
        <accidental>flat</accidental>
        <stem>up</stem>
        <notehead color="#13819E" parentheses="no">normal</notehead>
        <lyric name="1" number="1">
          <syllabic>single</syllabic>
          <text>du</text>
        </lyric>
      </note>
      <note color="#13819E" id="nh_2898_2176">
        <pitch>
          <step>G</step>
          <alter>-1</alter>
          <octave>4</octave>
        </pitch>
        <duration>5040</duration>
        <type>eighth</type>
        <accidental>flat</accidental>
        <stem>up</stem>
        <notehead color="#13819E" parentheses="no">normal</notehead>
        <lyric name="1" number="1">
          <syllabic>single</syllabic>
          <text>cu</text>
        </lyric>
      </note>
    </measure>
    <!--========================= Measure 7 ==========================-->
    <measure id="m7-part2" implicit="no" number="7">
      <attributes>
        <time id="ts_3083_2106">
          <beats>2</beats>
          <beat-type>4</beat-type>
        </time>
      </attributes>
      <note color="#13819E" id="nh_3196_2176">
        <pitch>
          <step>G</step>
          <alter>-1</alter>
          <octave>4</octave>
        </pitch>
        <duration>10080</duration>
        <type>quarter</type>
        <accidental>flat</accidental>
        <stem>up</stem>
        <notehead color="#13819E" parentheses="no">normal</notehead>
        <lyric name="1" number="1">
          <syllabic>begin</syllabic>
          <text>pi</text>
        </lyric>
      </note>
      <note color="#13819E" id="nh_3448_2192">
        <pitch>
          <step>F</step>
          <octave>4</octave>
        </pitch>
        <duration>10080</duration>
        <type>quarter</type>
        <stem>up</stem>
        <notehead color="#13819E" parentheses="no">normal</notehead>
        <lyric name="1" number="1">
          <syllabic>single</syllabic>
          <text>de</text>
        </lyric>
      </note>
    </measure>
    <!--========================= Measure 8 ==========================-->
    <measure id="m8-part2" implicit="no" number="8">
      <print new-system="yes"/>
      <attributes>
        <time id="ts_858_3237" symbol="common">
          <beats>4</beats>
          <beat-type>4</beat-type>
        </time>
      </attributes>
      <note color="#13819E" id="F2part2M81E1">
        <rest/>
        <duration>5040</duration>
        <type>eighth</type>
      </note>
      <note color="#13819E" id="nh_1042_3221">
        <pitch>
          <step>D</step>
          <octave>5</octave>
        </pitch>
        <duration>5040</duration>
        <type>eighth</type>
        <stem>down</stem>
        <notehead color="#13819E" parentheses="no">normal</notehead>
        <lyric name="1" number="1">
          <syllabic>single</syllabic>
          <text>Ou</text>
        </lyric>
      </note>
      <note color="#13819E" id="nh_1128_3235">
        <pitch>
          <step>C</step>
          <octave>5</octave>
        </pitch>
        <duration>5040</duration>
        <type>eighth</type>
        <stem>down</stem>
        <notehead color="#13819E" parentheses="no">normal</notehead>
        <lyric name="1" number="1">
          <syllabic>single</syllabic>
          <text>du</text>
        </lyric>
      </note>
      <note color="#13819E" id="nh_1251_3249">
        <pitch>
          <step>B</step>
          <alter>0</alter>
          <octave>4</octave>
        </pitch>
        <duration>5040</duration>
        <type>eighth</type>
        <accidental>natural</accidental>
        <stem>down</stem>
        <notehead color="#13819E" parentheses="no">normal</notehead>
        <lyric name="1" number="1">
          <syllabic>single</syllabic>
          <text>coeur</text>
        </lyric>
      </note>
      <note color="#13819E" id="nh_1368_3189">
        <pitch>
          <step>F</step>
          <octave>5</octave>
        </pitch>
        <duration>15120</duration>
        <type>quarter</type>
        <dot/>
        <stem>down</stem>
        <notehead color="#13819E" parentheses="no">normal</notehead>
        <lyric name="1" number="1">
          <syllabic>single</syllabic>
          <text>sourd</text>
        </lyric>
      </note>
      <note color="#13819E" id="nh_1613_3204">
        <pitch>
          <step>E</step>
          <alter>-1</alter>
          <octave>5</octave>
        </pitch>
        <duration>5040</duration>
        <type>eighth</type>
        <stem>down</stem>
        <notehead color="#13819E" parentheses="no">normal</notehead>
        <lyric name="1" number="1">
          <syllabic>single</syllabic>
          <text>pour</text>
        </lyric>
      </note>
    </measure>
    <!--========================= Measure 9 ==========================-->
    <measure id="m9-part2" implicit="no" number="9">
      <note color="#13819E" id="nh_1750_3205">
        <pitch>
          <step>E</step>
          <alter>-1</alter>
          <octave>5</octave>
        </pitch>
        <duration>15120</duration>
        <type>quarter</type>
        <dot/>
        <stem>down</stem>
        <notehead color="#13819E" parentheses="no">normal</notehead>
        <lyric name="1" number="1">
          <syllabic>single</syllabic>
          <text>qui</text>
        </lyric>
      </note>
      <note color="#13819E" id="nh_1989_3220">
        <pitch>
          <step>D</step>
          <octave>5</octave>
        </pitch>
        <duration>5040</duration>
        <type>eighth</type>
        <stem>down</stem>
        <notehead color="#13819E" parentheses="no">normal</notehead>
        <lyric name="1" number="1">
          <syllabic>single</syllabic>
          <text>le</text>
        </lyric>
      </note>
      <note color="#13819E" id="nh_2108_3219">
        <pitch>
          <step>D</step>
          <octave>5</octave>
        </pitch>
        <duration>5040</duration>
        <type>eighth</type>
        <stem>down</stem>
        <notehead color="#13819E" parentheses="no">normal</notehead>
        <lyric name="1" number="1">
          <syllabic>single</syllabic>
          <text>chant</text>
        </lyric>
      </note>
      <note color="#13819E" id="nh_2254_3276">
        <pitch>
          <step>G</step>
          <octave>4</octave>
        </pitch>
        <duration>5040</duration>
        <type>eighth</type>
        <stem>up</stem>
        <notehead color="#13819E" parentheses="no">normal</notehead>
        <lyric name="1" number="1">
          <syllabic>single</syllabic>
          <text>Nest</text>
        </lyric>
      </note>
      <note color="#13819E" id="nh_2397_3217">
        <pitch>
          <step>D</step>
          <octave>5</octave>
        </pitch>
        <duration>5040</duration>
        <type>eighth</type>
        <stem>down</stem>
        <notehead color="#13819E" parentheses="no">normal</notehead>
        <lyric name="1" number="1">
          <syllabic>single</syllabic>
          <text>qu'un</text>
        </lyric>
      </note>
      <note color="#13819E" id="nh_2518_3232">
        <pitch>
          <step>C</step>
          <octave>5</octave>
        </pitch>
        <duration>5040</duration>
        <type>eighth</type>
        <stem>down</stem>
        <notehead color="#13819E" parentheses="no">normal</notehead>
        <lyric name="1" number="1">
          <syllabic>single</syllabic>
          <text>son</text>
        </lyric>
      </note>
    </measure>
    <!--========================= Measure 10 =========================-->
    <measure id="m10-part2" implicit="no" number="10">
      <attributes>
        <time id="ts_2648_3208">
          <beats>2</beats>
          <beat-type>4</beat-type>
        </time>
      </attributes>
      <note color="#13819E" id="nh_2724_3232">
        <pitch>
          <step>C</step>
          <octave>5</octave>
        </pitch>
        <duration>10080</duration>
        <type>quarter</type>
        <stem>down</stem>
        <notehead color="#13819E" parentheses="no">normal</notehead>
        <lyric name="1" number="1">
          <syllabic>begin</syllabic>
          <text>vi</text>
        </lyric>
      </note>
      <note color="#13819E" id="nh_2881_3245">
        <pitch>
          <step>B</step>
          <alter>0</alter>
          <octave>4</octave>
        </pitch>
        <duration>10080</duration>
        <type>quarter</type>
        <accidental>natural</accidental>
        <stem>down</stem>
        <notehead color="#13819E" parentheses="no">normal</notehead>
        <lyric name="1" number="1">
          <syllabic>single</syllabic>
          <text>de</text>
        </lyric>
      </note>
    </measure>
    <!--========================= Measure 11 =========================-->
    <measure id="m11-part2" implicit="no" number="11">
      <attributes>
        <time id="ts_3089_3229" symbol="common">
          <beats>4</beats>
          <beat-type>4</beat-type>
        </time>
      </attributes>
      <note color="#13819E" id="nh_3164_3199">
        <pitch>
          <step>E</step>
          <alter>-1</alter>
          <octave>5</octave>
        </pitch>
        <duration>10080</duration>
        <type>quarter</type>
        <stem>down</stem>
        <notehead color="#13819E" parentheses="no">normal</notehead>
        <notations>
          <articulations>
            <accent placement="above"/>
          </articulations>
        </notations>
        <lyric name="1" number="1">
          <syllabic>single</syllabic>
          <text>Oh!</text>
        </lyric>
      </note>
      <note color="#13819E" id="nh_3312_3213">
        <pitch>
          <step>D</step>
          <octave>5</octave>
        </pitch>
        <duration>5040</duration>
        <type>eighth</type>
        <stem>down</stem>
        <notehead color="#13819E" parentheses="no">normal</notehead>
        <lyric name="1" number="1">
          <syllabic>single</syllabic>
          <text>s'il</text>
        </lyric>
      </note>
      <note color="#13819E" id="nh_3407_3229">
        <pitch>
          <step>C</step>
          <octave>5</octave>
        </pitch>
        <duration>5040</duration>
        <type>eighth</type>
        <stem>down</stem>
        <notehead color="#13819E" parentheses="no">normal</notehead>
        <lyric name="1" number="1">
          <syllabic>single</syllabic>
          <text>se</text>
        </lyric>
      </note>
      <note color="#13819E" id="nh_3509_3211">
        <pitch>
          <step>D</step>
          <octave>5</octave>
        </pitch>
        <duration>20160</duration>
        <type>half</type>
        <stem>down</stem>
        <notehead color="#13819E" parentheses="no">normal</notehead>
        <lyric name="1" number="1">
          <syllabic>single</syllabic>
          <text>peut,</text>
        </lyric>
      </note>
    </measure>
    <!--========================= Measure 12 =========================-->
    <measure id="m12-part2" implicit="no" number="12">
      <print new-system="yes"/>
      <note color="#13819E" id="nh_928_4341">
        <pitch>
          <step>C</step>
          <octave>5</octave>
        </pitch>
        <duration>10080</duration>
        <type>quarter</type>
        <stem>down</stem>
        <notehead color="#13819E" parentheses="no">normal</notehead>
        <lyric name="1" number="1">
          <syllabic>single</syllabic>
          <text>s'il</text>
        </lyric>
      </note>
      <direction placement="above">
        <direction-type>
          <dynamics default-x="-36" default-y="-80">
            <mf/>
          </dynamics>
        </direction-type>
        <sound dynamics="69"/>
      </direction>
      <note color="#13819E" id="nh_1173_4353">
        <pitch>
          <step>B</step>
          <alter>-1</alter>
          <octave>4</octave>
        </pitch>
        <duration>5040</duration>
        <type>eighth</type>
        <stem>up</stem>
        <notehead color="#13819E" parentheses="no">normal</notehead>
        <notations>
          <ornaments>
            <trill-mark placement="above"/>
          </ornaments>
        </notations>
        <lyric name="1" number="1">
          <syllabic>single</syllabic>
          <text>est</text>
        </lyric>
      </note>
      <note color="#13819E" id="nh_1295_4364">
        <pitch>
          <step>A</step>
          <octave>4</octave>
        </pitch>
        <duration>5040</duration>
        <type>eighth</type>
        <stem>up</stem>
        <notehead color="#13819E" parentheses="no">normal</notehead>
        <lyric name="1" number="1">
          <syllabic>begin</syllabic>
          <text>en</text>
        </lyric>
      </note>
      <note color="#13819E" id="nh_1418_4349">
        <pitch>
          <step>B</step>
          <alter>-1</alter>
          <octave>4</octave>
        </pitch>
        <duration>5040</duration>
        <type>eighth</type>
        <stem>up</stem>
        <notehead color="#13819E" parentheses="no">normal</notehead>
        <lyric name="1" number="1">
          <syllabic>single</syllabic>
          <text>cor</text>
        </lyric>
      </note>
      <note color="#13819E" id="nh_1560_4346">
        <pitch>
          <step>B</step>
          <alter>-1</alter>
          <octave>4</octave>
        </pitch>
        <duration>5040</duration>
        <type>eighth</type>
        <stem>up</stem>
        <notehead color="#13819E" parentheses="no">normal</notehead>
        <lyric name="1" number="1">
          <syllabic>single</syllabic>
          <text>Lieux</text>
        </lyric>
      </note>
      <note color="#13819E" id="nh_1714_4360">
        <pitch>
          <step>A</step>
          <octave>4</octave>
        </pitch>
        <duration>5040</duration>
        <type>eighth</type>
        <stem>up</stem>
        <notehead color="#13819E" parentheses="no">normal</notehead>
        <lyric name="1" number="1">
          <syllabic>single</syllabic>
          <text>o&#249;</text>
        </lyric>
      </note>
      <note color="#13819E" id="nh_1831_4374">
        <pitch>
          <step>G</step>
          <octave>4</octave>
        </pitch>
        <duration>5040</duration>
        <type>eighth</type>
        <stem>up</stem>
        <notehead color="#13819E" parentheses="no">normal</notehead>
        <lyric name="1" number="1">
          <syllabic>single</syllabic>
          <text>l&#8217;on</text>
        </lyric>
      </note>
    </measure>
    <!--========================= Measure 13 =========================-->
    <measure id="m13-part2" implicit="no" number="13">
      <attributes>
        <time id="ts_2018_4306">
          <beats>2</beats>
          <beat-type>4</beat-type>
        </time>
      </attributes>
      <note color="#13819E" id="nh_2142_4344">
        <pitch>
          <step>B</step>
          <alter>-1</alter>
          <octave>4</octave>
        </pitch>
        <duration>10080</duration>
        <type>quarter</type>
        <stem>up</stem>
        <notehead color="#13819E" parentheses="no">normal</notehead>
        <lyric name="1" number="1">
          <syllabic>begin</syllabic>
          <text>fui</text>
        </lyric>
      </note>
      <note color="#13819E" id="nh_2387_4360">
        <pitch>
          <step>A</step>
          <octave>4</octave>
        </pitch>
        <duration>10080</duration>
        <type>quarter</type>
        <stem>up</stem>
        <notehead color="#13819E" parentheses="no">normal</notehead>
        <lyric name="1" number="1">
          <syllabic>single</syllabic>
          <text>e,</text>
        </lyric>
      </note>
    </measure>
    <!--========================= Measure 14 =========================-->
    <measure id="m14-part2" implicit="no" number="14">
      <attributes>
        <time id="ts_2620_4331" symbol="common">
          <beats>4</beats>
          <beat-type>4</beat-type>
        </time>
      </attributes>
      <note color="#13819E" id="F2part2M141E1">
        <rest/>
        <duration>5040</duration>
        <type>eighth</type>
      </note>
      <direction placement="above">
        <direction-type>
          <dynamics default-x="-36" default-y="-80">
            <p/>
          </dynamics>
        </direction-type>
        <sound dynamics="44"/>
      </direction>
      <note color="#13819E" id="nh_2861_4373">
        <pitch>
          <step>G</step>
          <octave>4</octave>
        </pitch>
        <duration>5040</duration>
        <type>eighth</type>
        <stem>up</stem>
        <notehead color="#13819E" parentheses="no">normal</notehead>
        <lyric name="1" number="1">
          <syllabic>single</syllabic>
          <text>Dans</text>
        </lyric>
      </note>
      <note color="#13819E" id="nh_3003_4362">
        <pitch>
          <step>A</step>
          <octave>4</octave>
        </pitch>
        <duration>5040</duration>
        <type>eighth</type>
        <stem>up</stem>
        <notehead color="#13819E" parentheses="no">normal</notehead>
        <lyric name="1" number="1">
          <syllabic>single</syllabic>
          <text>les</text>
        </lyric>
      </note>
      <note color="#13819E" id="nh_3153_4347">
        <pitch>
          <step>B</step>
          <alter>-1</alter>
          <octave>4</octave>
        </pitch>
        <duration>5040</duration>
        <type>eighth</type>
        <stem>up</stem>
        <notehead color="#13819E" parentheses="no">normal</notehead>
        <lyric name="1" number="1">
          <syllabic>single</syllabic>
          <text>coins</text>
        </lyric>
      </note>
      <note color="#13819E" id="nh_3310_4363">
        <pitch>
          <step>A</step>
          <octave>4</octave>
        </pitch>
        <duration>5040</duration>
        <type>eighth</type>
        <stem>up</stem>
        <notehead color="#13819E" parentheses="no">normal</notehead>
        <lyric name="1" number="1">
          <syllabic>single</syllabic>
          <text>bleus</text>
        </lyric>
      </note>
      <note color="#13819E" id="nh_3470_4378">
        <pitch>
          <step>G</step>
          <octave>4</octave>
        </pitch>
        <duration>5040</duration>
        <type>eighth</type>
        <stem>up</stem>
        <notehead color="#13819E" parentheses="no">normal</notehead>
        <lyric name="1" number="1">
          <syllabic>begin</syllabic>
          <text>par</text>
        </lyric>
      </note>
      <note color="#13819E" id="nh_3584_4349">
        <pitch>
          <step>B</step>
          <alter>-1</alter>
          <octave>4</octave>
        </pitch>
        <duration>5040</duration>
        <type>eighth</type>
        <stem>down</stem>
        <notehead color="#13819E" parentheses="no">normal</notehead>
        <lyric name="1" number="1">
          <syllabic>begin</syllabic>
          <text>se</text>
        </lyric>
      </note>
      <note color="#13819E" id="nh_3705_4335">
        <pitch>
          <step>C</step>
          <octave>5</octave>
        </pitch>
        <duration>5040</duration>
        <type>eighth</type>
        <stem>down</stem>
        <notehead color="#13819E" parentheses="no">normal</notehead>
        <lyric name="1" number="1">
          <syllabic>single</syllabic>
          <text>m&#233;s</text>
        </lyric>
      </note>
    </measure>
  </part>
  <!--=========================== Part 2 ===========================-->
  <part id="part1">
    <!--========================= Measure 1 ==========================-->
    <measure id="m1-part1" implicit="no" number="1">
      <attributes>
        <divisions>10080</divisions>
        <key id="ks_786_1386--ks_787_1697">
          <fifths>-2</fifths>
        </key>
        <time id="ts_861_1385--ts_863_1700">
          <beats>2</beats>
          <beat-type>4</beat-type>
        </time>
        <staves>2</staves>
        <clef id="clef_699_1386" number="1">
          <sign>F</sign>
          <line>4</line>
        </clef>
        <clef id="clef_701_1698" number="2">
          <sign>F</sign>
          <line>4</line>
        </clef>
      </attributes>
      <note color="#13819E" id="nh_971_1413">
        <pitch>
          <step>E</step>
          <alter>0</alter>
          <octave>3</octave>
        </pitch>
        <duration>5040</duration>
        <voice>1</voice>
        <type>eighth</type>
        <accidental>natural</accidental>
        <stem>down</stem>
        <notehead color="#13819E" parentheses="no">normal</notehead>
        <staff>1</staff>
        <beam number="1">begin</beam>
        </note>
      <note color="#13819E" id="nh_1059_1381">
        <pitch>
          <step>G</step>
          <octave>3</octave>
        </pitch>
        <duration>5040</duration>
        <voice>1</voice>
        <type>eighth</type>
        <stem>down</stem>
        <notehead color="#13819E" parentheses="no">normal</notehead>
        <staff>1</staff>
        <beam number="1">continue</beam>
      </note>
      <note color="#13819E" id="nh_1144_1397">
        <pitch>
          <step>F</step>
          <alter>1</alter>
          <octave>3</octave>
        </pitch>
        <duration>5040</duration>
        <voice>1</voice>
        <type>eighth</type>
        <accidental>sharp</accidental>
        <stem>down</stem>
        <notehead color="#13819E" parentheses="no">normal</notehead>
        <staff>1</staff>
        <beam number="1">continue</beam>
      </note>
      <note color="#13819E" id="nh_1237_1366">
        <pitch>
          <step>A</step>
          <octave>3</octave>
        </pitch>
        <duration>5040</duration>
        <voice>1</voice>
        <type>eighth</type>
        <stem>down</stem>
        <notehead color="#13819E" parentheses="no">normal</notehead>
        <staff>1</staff>
        <beam number="1">end</beam>
      </note>
      <backup>
        <duration>20160</duration>
      </backup>
      <note color="#5034D4" id="nh_971_1337">
        <pitch>
          <step>C</step>
          <alter>1</alter>
          <octave>4</octave>
        </pitch>
        <duration>10080</duration>
        <voice>3</voice>
        <type>quarter</type>
        <accidental>sharp</accidental>
        <stem>up</stem>
        <notehead color="#5034D4" parentheses="no">normal</notehead>
        <staff>1</staff>
        <notations>
          <articulations>
            <accent placement="above"/>
          </articulations>
        </notations>
      </note>
      <note color="#5034D4" id="nh_1141_1320">
        <pitch>
          <step>D</step>
          <octave>4</octave>
        </pitch>
        <duration>10080</duration>
        <voice>3</voice>
        <type>quarter</type>
        <stem>up</stem>
        <notehead color="#5034D4" parentheses="no">normal</notehead>
        <staff>1</staff>
      </note>
      <backup>
        <duration>20160</duration>
      </backup>
      <note color="#A637B0" id="nh_972_1735">
        <pitch>
          <step>D</step>
          <octave>3</octave>
        </pitch>
        <duration>20160</duration>
        <voice>4</voice>
        <type>half</type>
        <stem>up</stem>
        <notehead color="#A637B0" parentheses="no">normal</notehead>
        <staff>2</staff>
        <notations>
          <articulations>
            <accent placement="above"/>
          </articulations>
        </notations>
      </note>
      <note color="#A637B0" id="nh_971_1840">
        <chord/>
        <pitch>
          <step>D</step>
          <octave>2</octave>
        </pitch>
        <duration>20160</duration>
        <voice>4</voice>
        <type>half</type>
        <stem>up</stem>
        <notehead color="#A637B0" parentheses="no">normal</notehead>
        <staff>2</staff>
      </note>
    </measure>
    <!--========================= Measure 2 ==========================-->
    <measure id="m2-part1" implicit="no" number="2">
      <attributes>
        <time id="ts_1373_1409--ts_1376_1722" symbol="common">
          <beats>4</beats>
          <beat-type>4</beat-type>
        </time>
      </attributes>
      <note color="#13819E" id="F2part1M22E1">
        <rest/>
        <duration>5040</duration>
        <voice>1</voice>
        <type>eighth</type>
        <staff>1</staff>
      </note>
      <attributes>
        <clef id="clef_1506_1384">
          <sign>G</sign>
          <line>2</line>
        </clef>
      </attributes>
      <note color="#13819E" id="nh_1586_1530">
        <pitch>
          <step>B</step>
          <alter>0</alter>
          <octave>3</octave>
        </pitch>
        <duration>5040</duration>
        <voice>1</voice>
        <type>eighth</type>
        <accidental>natural</accidental>
        <stem>up</stem>
        <notehead color="#13819E" parentheses="no">normal</notehead>
        <staff>1</staff>
        <beam number="1">begin</beam>
        </note>
      <note color="#13819E" id="nh_1716_1499">
        <pitch>
          <step>D</step>
          <octave>4</octave>
        </pitch>
        <duration>5040</duration>
        <voice>1</voice>
        <type>eighth</type>
        <stem>up</stem>
        <notehead color="#13819E" parentheses="no">normal</notehead>
        <staff>1</staff>
        <beam number="1">continue</beam>
      </note>
      <note color="#13819E" id="nh_1819_1469">
        <pitch>
          <step>F</step>
          <alter>0</alter>
          <octave>4</octave>
        </pitch>
        <duration>5040</duration>
        <voice>1</voice>
        <type>eighth</type>
        <accidental>natural</accidental>
        <stem>up</stem>
        <notehead color="#13819E" parentheses="no">normal</notehead>
        <staff>1</staff>
        <beam number="1">end</beam>
      </note>
      <note color="#13819E" id="nh_1942_1441">
        <pitch>
          <step>A</step>
          <alter>-1</alter>
          <octave>4</octave>
        </pitch>
        <duration>5040</duration>
        <voice>1</voice>
        <type>eighth</type>
        <accidental>flat</accidental>
        <stem>up</stem>
        <notehead color="#13819E" parentheses="no">normal</notehead>
        <staff>1</staff>
        <beam number="1">begin</beam>
      </note>
      <note color="#13819E" id="nh_2061_1454">
        <pitch>
          <step>G</step>
          <octave>4</octave>
        </pitch>
        <duration>5040</duration>
        <voice>1</voice>
        <type>eighth</type>
        <stem>up</stem>
        <notehead color="#13819E" parentheses="no">normal</notehead>
        <staff>1</staff>
        <beam number="1">continue</beam>
      </note>
      <note color="#13819E" id="nh_2191_1468">
        <pitch>
          <step>F</step>
          <octave>4</octave>
        </pitch>
        <duration>5040</duration>
        <voice>1</voice>
        <type>eighth</type>
        <stem>up</stem>
        <notehead color="#13819E" parentheses="no">normal</notehead>
        <staff>1</staff>
        <beam number="1">continue</beam>
      </note>
      <note color="#13819E" id="nh_2325_1437">
        <pitch>
          <step>A</step>
          <alter>-1</alter>
          <octave>4</octave>
        </pitch>
        <duration>5040</duration>
        <voice>1</voice>
        <type>eighth</type>
        <accidental>flat</accidental>
        <stem>up</stem>
        <notehead color="#13819E" parentheses="no">normal</notehead>
        <staff>1</staff>
        <beam number="1">end</beam>
      </note>
      <backup>
        <duration>40320</duration>
      </backup>
      <note color="#A637B0" id="nh_1465_1792">
        <pitch>
          <step>G</step>
          <octave>2</octave>
        </pitch>
        <duration>20160</duration>
        <voice>2</voice>
        <type>half</type>
        <stem>up</stem>
        <notehead color="#A637B0" parentheses="no">normal</notehead>
        <staff>2</staff>
        </note>
      <note color="#A637B0" id="F2part1M23E1">
        <rest/>
        <duration>20160</duration>
        <voice>2</voice>
        <type>half</type>
        <staff>2</staff>
      </note>
    </measure>
    <!--========================= Measure 3 ==========================-->
    <measure id="m3-part1" implicit="no" number="3">
      <note color="#13819E" id="nh_2480_1446">
        <pitch>
          <step>G</step>
          <octave>4</octave>
        </pitch>
        <duration>20160</duration>
        <tie type="start"/>
        <voice>1</voice>
        <type>half</type>
        <stem>up</stem>
        <notehead color="#13819E" parentheses="no">normal</notehead>
        <staff>1</staff>
        <notations>
          <tied type="start"/>
        </notations>
      </note>
      <note color="#13819E" id="nh_2831_1449">
        <pitch>
          <step>G</step>
          <octave>4</octave>
        </pitch>
        <duration>5040</duration>
        <tie type="stop"/>
        <voice>1</voice>
        <type>eighth</type>
        <stem>up</stem>
        <notehead color="#13819E" parentheses="no">normal</notehead>
        <staff>1</staff>
        <notations>
          <tied type="stop"/>
        </notations>
      </note>
      <note color="#13819E" id="nh_2921_1450">
        <pitch>
          <step>G</step>
          <octave>4</octave>
        </pitch>
        <duration>5040</duration>
        <voice>1</voice>
        <type>eighth</type>
        <stem>up</stem>
        <notehead color="#13819E" parentheses="no">normal</notehead>
        <staff>1</staff>
        <beam number="1">begin</beam>
      </note>
      <note color="#13819E" id="nh_3027_1466">
        <pitch>
          <step>F</step>
          <octave>4</octave>
        </pitch>
        <duration>5040</duration>
        <voice>1</voice>
        <type>eighth</type>
        <stem>up</stem>
        <notehead color="#13819E" parentheses="no">normal</notehead>
        <staff>1</staff>
        <beam number="1">continue</beam>
      </note>
      <note color="#13819E" id="nh_3150_1481">
        <pitch>
          <step>E</step>
          <alter>-1</alter>
          <octave>4</octave>
        </pitch>
        <duration>5040</duration>
        <voice>1</voice>
        <type>eighth</type>
        <stem>up</stem>
        <notehead color="#13819E" parentheses="no">normal</notehead>
        <staff>1</staff>
        <beam number="1">end</beam>
      </note>
      <backup>
        <duration>40320</duration>
      </backup>
      <note color="#A637B0" id="F2part1M33E1">
        <rest/>
        <duration>5040</duration>
        <voice>2</voice>
        <type>eighth</type>
        <staff>2</staff>
      </note>
      <note color="#A637B0" id="nh_2566_1732">
        <pitch>
          <step>D</step>
          <octave>3</octave>
        </pitch>
        <duration>5040</duration>
        <voice>2</voice>
        <type>eighth</type>
        <stem>down</stem>
        <notehead color="#A637B0" parentheses="no">normal</notehead>
        <staff>2</staff>
        <beam number="1">begin</beam>
        </note>
      <note color="#A637B0" id="nh_2659_1686">
        <pitch>
          <step>G</step>
          <octave>3</octave>
        </pitch>
        <duration>5040</duration>
        <voice>2</voice>
        <type>eighth</type>
        <stem>down</stem>
        <notehead color="#A637B0" parentheses="no">normal</notehead>
        <staff>2</staff>
        <beam number="1">continue</beam>
      </note>
      <note color="#A637B0" id="nh_2746_1700">
        <pitch>
          <step>F</step>
          <alter>1</alter>
          <octave>3</octave>
        </pitch>
        <duration>5040</duration>
        <voice>2</voice>
        <type>eighth</type>
        <accidental>sharp</accidental>
        <stem>down</stem>
        <notehead color="#A637B0" parentheses="no">normal</notehead>
        <staff>2</staff>
        <beam number="1">end</beam>
      </note>
      <note color="#A637B0" id="nh_2833_1700">
        <pitch>
          <step>F</step>
          <alter>0</alter>
          <octave>3</octave>
        </pitch>
        <duration>5040</duration>
        <voice>2</voice>
        <type>eighth</type>
        <accidental>natural</accidental>
        <stem>down</stem>
        <notehead color="#A637B0" parentheses="no">normal</notehead>
        <staff>2</staff>
        <beam number="1">begin</beam>
      </note>
      <note color="#A637B0" id="nh_2924_1717">
        <pitch>
          <step>E</step>
          <alter>-1</alter>
          <octave>3</octave>
        </pitch>
        <duration>5040</duration>
        <voice>2</voice>
        <type>eighth</type>
        <stem>down</stem>
        <notehead color="#A637B0" parentheses="no">normal</notehead>
        <staff>2</staff>
        <beam number="1">continue</beam>
      </note>
      <note color="#A637B0" id="nh_3025_1732">
        <pitch>
          <step>D</step>
          <octave>3</octave>
        </pitch>
        <duration>5040</duration>
        <voice>2</voice>
        <type>eighth</type>
        <stem>down</stem>
        <notehead color="#A637B0" parentheses="no">normal</notehead>
        <staff>2</staff>
        <beam number="1">continue</beam>
      </note>
      <note color="#A637B0" id="nh_3152_1747">
        <pitch>
          <step>C</step>
          <octave>3</octave>
        </pitch>
        <duration>5040</duration>
        <voice>2</voice>
        <type>eighth</type>
        <stem>down</stem>
        <notehead color="#A637B0" parentheses="no">normal</notehead>
        <staff>2</staff>
        <beam number="1">end</beam>
      </note>
    </measure>
    <!--========================= Measure 4 ==========================-->
    <measure id="m4-part1" implicit="no" number="4">
      <attributes>
        <time id="ts_3313_1386--ts_3311_1692">
          <beats>2</beats>
          <beat-type>4</beat-type>
        </time>
      </attributes>
      <note color="#13819E" id="nh_3402_1435">
        <pitch>
          <step>A</step>
          <octave>4</octave>
        </pitch>
        <duration>5040</duration>
        <voice>1</voice>
        <type>eighth</type>
        <stem>up</stem>
        <notehead color="#13819E" parentheses="no">normal</notehead>
        <staff>1</staff>
        <beam number="1">begin</beam>
        <notations>
          <articulations>
            <accent placement="above"/>
          </articulations>
        </notations>
      </note>
      <note color="#13819E" id="nh_3400_1466">
        <chord/>
        <pitch>
          <step>F</step>
          <alter>1</alter>
          <octave>4</octave>
        </pitch>
        <duration>5040</duration>
        <voice>1</voice>
        <type>eighth</type>
        <accidental>sharp</accidental>
        <stem>up</stem>
        <notehead color="#13819E" parentheses="no">normal</notehead>
        <staff>1</staff>
      </note>
      <note color="#13819E" id="nh_3490_1448">
        <pitch>
          <step>G</step>
          <octave>4</octave>
        </pitch>
        <duration>5040</duration>
        <voice>1</voice>
        <type>eighth</type>
        <stem>up</stem>
        <notehead color="#13819E" parentheses="no">normal</notehead>
        <staff>1</staff>
        <beam number="1">end</beam>
      </note>
      <note color="#13819E" id="nh_3491_1482">
        <chord/>
        <pitch>
          <step>E</step>
          <alter>0</alter>
          <octave>4</octave>
        </pitch>
        <duration>5040</duration>
        <voice>1</voice>
        <type>eighth</type>
        <accidental>natural</accidental>
        <stem>up</stem>
        <notehead color="#13819E" parentheses="no">normal</notehead>
        <staff>1</staff>
      </note>
      <note color="#13819E" id="nh_3574_1463">
        <pitch>
          <step>F</step>
          <alter>1</alter>
          <octave>4</octave>
        </pitch>
        <duration>10080</duration>
        <voice>1</voice>
        <type>quarter</type>
        <accidental>sharp</accidental>
        <stem>up</stem>
        <notehead color="#13819E" parentheses="no">normal</notehead>
        <staff>1</staff>
      </note>
      <note color="#13819E" id="nh_3573_1495">
        <chord/>
        <pitch>
          <step>D</step>
          <octave>4</octave>
        </pitch>
        <duration>10080</duration>
        <voice>1</voice>
        <type>quarter</type>
        <stem>up</stem>
        <notehead color="#13819E" parentheses="no">normal</notehead>
        <staff>1</staff>
      </note>
      <backup>
        <duration>20160</duration>
      </backup>
      <note color="#A637B0" id="nh_3402_1776">
        <pitch>
          <step>A</step>
          <octave>2</octave>
        </pitch>
        <duration>10080</duration>
        <voice>2</voice>
        <type>quarter</type>
        <stem>down</stem>
        <notehead color="#A637B0" parentheses="no">normal</notehead>
        <staff>2</staff>
        <notations>
          <articulations>
            <accent placement="above"/>
          </articulations>
        </notations>
      </note>
      <note color="#A637B0" id="nh_3400_1672">
        <chord/>
        <pitch>
          <step>A</step>
          <octave>3</octave>
        </pitch>
        <duration>10080</duration>
        <voice>2</voice>
        <type>quarter</type>
        <stem>down</stem>
        <notehead color="#A637B0" parentheses="no">normal</notehead>
        <staff>2</staff>
      </note>
      <note color="#A637B0" id="nh_3574_1732">
        <pitch>
          <step>D</step>
          <octave>3</octave>
        </pitch>
        <duration>10080</duration>
        <voice>2</voice>
        <type>quarter</type>
        <stem>down</stem>
        <notehead color="#A637B0" parentheses="no">normal</notehead>
        <staff>2</staff>
        </note>
    </measure>
    <!--========================= Measure 5 ==========================-->
    <measure id="m5-part1" implicit="no" number="5">
      <attributes>
        <time id="ts_858_2503--ts_861_2818" symbol="common">
          <beats>4</beats>
          <beat-type>4</beat-type>
        </time>
      </attributes>
      <note color="#13819E" id="F2part1M52E1">
        <rest/>
        <duration>5040</duration>
        <voice>1</voice>
        <type>eighth</type>
        <staff>1</staff>
      </note>
      <note color="#13819E" id="nh_1093_2625">
        <pitch>
          <step>B</step>
          <alter>-1</alter>
          <octave>3</octave>
        </pitch>
        <duration>5040</duration>
        <voice>1</voice>
        <type>eighth</type>
        <stem>up</stem>
        <notehead color="#13819E" parentheses="no">normal</notehead>
        <staff>1</staff>
        <beam number="1">begin</beam>
        </note>
      <note color="#13819E" id="nh_1243_2575">
        <pitch>
          <step>E</step>
          <alter>-1</alter>
          <octave>4</octave>
        </pitch>
        <duration>5040</duration>
        <voice>1</voice>
        <type>eighth</type>
        <accidental>flat</accidental>
        <stem>up</stem>
        <notehead color="#13819E" parentheses="no">normal</notehead>
        <staff>1</staff>
        <beam number="1">continue</beam>
      </note>
      <note color="#13819E" id="nh_1377_2591">
        <pitch>
          <step>D</step>
          <octave>4</octave>
        </pitch>
        <duration>5040</duration>
        <voice>1</voice>
        <type>eighth</type>
        <stem>up</stem>
        <notehead color="#13819E" parentheses="no">normal</notehead>
        <staff>1</staff>
        <beam number="1">end</beam>
      </note>
      <note color="#13819E" id="nh_1498_2544">
        <pitch>
          <step>G</step>
          <alter>-1</alter>
          <octave>4</octave>
        </pitch>
        <duration>5040</duration>
        <voice>1</voice>
        <type>eighth</type>
        <accidental>flat</accidental>
        <stem>up</stem>
        <notehead color="#13819E" parentheses="no">normal</notehead>
        <staff>1</staff>
        <beam number="1">begin</beam>
      </note>
      <note color="#13819E" id="nh_1615_2624">
        <pitch>
          <step>B</step>
          <alter>-1</alter>
          <octave>3</octave>
        </pitch>
        <duration>5040</duration>
        <voice>1</voice>
        <type>eighth</type>
        <stem>up</stem>
        <notehead color="#13819E" parentheses="no">normal</notehead>
        <staff>1</staff>
        <beam number="1">continue</beam>
      </note>
      <note color="#13819E" id="nh_1744_2543">
        <pitch>
          <step>G</step>
          <alter>-1</alter>
          <octave>4</octave>
        </pitch>
        <duration>5040</duration>
        <voice>1</voice>
        <type>eighth</type>
        <accidental>flat</accidental>
        <stem>up</stem>
        <notehead color="#13819E" parentheses="no">normal</notehead>
        <staff>1</staff>
        <beam number="1">continue</beam>
      </note>
      <note color="#13819E" id="nh_1858_2558">
        <pitch>
          <step>F</step>
          <alter>0</alter>
          <octave>4</octave>
        </pitch>
        <duration>5040</duration>
        <voice>1</voice>
        <type>eighth</type>
        <accidental>natural</accidental>
        <stem>up</stem>
        <notehead color="#13819E" parentheses="no">normal</notehead>
        <staff>1</staff>
        <beam number="1">end</beam>
      </note>
      <backup>
        <duration>40320</duration>
      </backup>
      <direction placement="above">
        <direction-type>
          <dynamics default-x="-36" default-y="-80">
            <f/>
          </dynamics>
        </direction-type>
        <staff>2</staff>
        <sound dynamics="88"/>
      </direction>
      <note color="#A637B0" id="nh_970_2970">
        <pitch>
          <step>B</step>
          <alter>-1</alter>
          <octave>1</octave>
        </pitch>
        <duration>40320</duration>
        <voice>2</voice>
        <type>whole</type>
        <stem>up</stem>
        <notehead color="#A637B0" parentheses="no">normal</notehead>
        <staff>2</staff>
      </note>
      <note color="#A637B0" id="nh_969_2860">
        <chord/>
        <pitch>
          <step>B</step>
          <alter>-1</alter>
          <octave>2</octave>
        </pitch>
        <duration>40320</duration>
        <voice>2</voice>
        <type>whole</type>
        <stem>up</stem>
        <notehead color="#A637B0" parentheses="no">normal</notehead>
        <staff>2</staff>
      </note>
    </measure>
    <!--========================= Measure 6 ==========================-->
    <measure id="m6-part1" implicit="no" number="6">
      <note color="#13819E" id="nh_2044_2559">
        <pitch>
          <step>F</step>
          <octave>4</octave>
        </pitch>
        <duration>15120</duration>
        <voice>1</voice>
        <type>quarter</type>
        <dot/>
        <stem>up</stem>
        <notehead color="#13819E" parentheses="no">normal</notehead>
        <staff>1</staff>
        </note>
      <note color="#13819E" id="nh_2404_2573">
        <pitch>
          <step>E</step>
          <alter>-1</alter>
          <octave>4</octave>
        </pitch>
        <duration>5040</duration>
        <voice>1</voice>
        <type>eighth</type>
        <stem>up</stem>
        <notehead color="#13819E" parentheses="no">normal</notehead>
        <staff>1</staff>
      </note>
      <note color="#13819E" id="nh_2536_2587">
        <pitch>
          <step>D</step>
          <octave>4</octave>
        </pitch>
        <duration>5040</duration>
        <voice>1</voice>
        <type>eighth</type>
        <stem>up</stem>
        <notehead color="#13819E" parentheses="no">normal</notehead>
        <staff>1</staff>
      </note>
      <note color="#13819E" id="nh_2658_2587">
        <pitch>
          <step>D</step>
          <octave>4</octave>
        </pitch>
        <duration>5040</duration>
        <voice>1</voice>
        <type>eighth</type>
        <stem>up</stem>
        <notehead color="#13819E" parentheses="no">normal</notehead>
        <staff>1</staff>
        <beam number="1">begin</beam>
      </note>
      <note color="#13819E" id="nh_2781_2557">
        <pitch>
          <step>F</step>
          <octave>4</octave>
        </pitch>
        <duration>5040</duration>
        <voice>1</voice>
        <type>eighth</type>
        <stem>up</stem>
        <notehead color="#13819E" parentheses="no">normal</notehead>
        <staff>1</staff>
        <beam number="1">continue</beam>
      </note>
      <note color="#13819E" id="nh_2902_2572">
        <pitch>
          <step>E</step>
          <alter>-1</alter>
          <octave>4</octave>
        </pitch>
        <duration>5040</duration>
        <voice>1</voice>
        <type>eighth</type>
        <stem>up</stem>
        <notehead color="#13819E" parentheses="no">normal</notehead>
        <staff>1</staff>
        <beam number="1">end</beam>
      </note>
      <backup>
        <duration>40320</duration>
      </backup>
      <note color="#A637B0" id="F2part1M63E1">
        <rest/>
        <duration>5040</duration>
        <voice>2</voice>
        <type>eighth</type>
        <staff>2</staff>
      </note>
      <note color="#A637B0" id="nh_2164_2797">
        <pitch>
          <step>F</step>
          <octave>3</octave>
        </pitch>
        <duration>5040</duration>
        <voice>2</voice>
        <type>eighth</type>
        <stem>down</stem>
        <notehead color="#A637B0" parentheses="no">normal</notehead>
        <staff>2</staff>
        <beam number="1">begin</beam>
        </note>
      <note color="#A637B0" id="nh_2285_2780">
        <pitch>
          <step>G</step>
          <alter>0</alter>
          <octave>3</octave>
        </pitch>
        <duration>5040</duration>
        <voice>2</voice>
        <type>eighth</type>
        <accidental>natural</accidental>
        <stem>down</stem>
        <notehead color="#A637B0" parentheses="no">normal</notehead>
        <staff>2</staff>
        <beam number="1">continue</beam>
      </note>
      <note color="#A637B0" id="nh_2404_2763">
        <pitch>
          <step>A</step>
          <octave>3</octave>
        </pitch>
        <duration>5040</duration>
        <voice>2</voice>
        <type>eighth</type>
        <stem>down</stem>
        <notehead color="#A637B0" parentheses="no">normal</notehead>
        <staff>2</staff>
        <beam number="1">end</beam>
      </note>
      <note color="#A637B0" id="nh_2538_2749">
        <pitch>
          <step>B</step>
          <alter>-1</alter>
          <octave>3</octave>
        </pitch>
        <duration>5040</duration>
        <voice>2</voice>
        <type>eighth</type>
        <stem>down</stem>
        <notehead color="#A637B0" parentheses="no">normal</notehead>
        <staff>2</staff>
        <beam number="1">begin</beam>
      </note>
      <note color="#A637B0" id="nh_2662_2853">
        <pitch>
          <step>B</step>
          <alter>-1</alter>
          <octave>2</octave>
        </pitch>
        <duration>5040</duration>
        <voice>2</voice>
        <type>eighth</type>
        <stem>down</stem>
        <notehead color="#A637B0" parentheses="no">normal</notehead>
        <staff>2</staff>
        <beam number="1">end</beam>
      </note>
      <note color="#A637B0" id="F2part1M63E3">
        <rest/>
        <duration>5040</duration>
        <voice>2</voice>
        <type>eighth</type>
        <staff>2</staff>
      </note>
      <note color="#A637B0" id="nh_2907_2914">
        <pitch>
          <step>E</step>
          <alter>-1</alter>
          <octave>2</octave>
        </pitch>
        <duration>5040</duration>
        <voice>2</voice>
        <type>eighth</type>
        <stem>up</stem>
        <notehead color="#A637B0" parentheses="no">normal</notehead>
        <staff>2</staff>
      </note>
    </measure>
    <!--========================= Measure 7 ==========================-->
    <measure id="m7-part1" implicit="no" number="7">
      <attributes>
        <time id="ts_3087_2476--ts_3089_2783">
          <beats>2</beats>
          <beat-type>4</beat-type>
        </time>
      </attributes>
      <note color="#13819E" id="nh_3202_2573">
        <pitch>
          <step>E</step>
          <alter>-1</alter>
          <octave>4</octave>
        </pitch>
        <duration>10080</duration>
        <voice>1</voice>
        <type>quarter</type>
        <stem>up</stem>
        <notehead color="#13819E" parentheses="no">normal</notehead>
        <staff>1</staff>
        </note>
      <note color="#13819E" id="nh_3448_2588">
        <pitch>
          <step>D</step>
          <octave>4</octave>
        </pitch>
        <duration>10080</duration>
        <voice>1</voice>
        <type>quarter</type>
        <stem>up</stem>
        <notehead color="#13819E" parentheses="no">normal</notehead>
        <staff>1</staff>
      </note>
      <backup>
        <duration>20160</duration>
      </backup>
      <note color="#A637B0" id="nh_3205_2880">
        <pitch>
          <step>G</step>
          <alter>-1</alter>
          <octave>2</octave>
        </pitch>
        <duration>5040</duration>
        <voice>2</voice>
        <type>eighth</type>
        <accidental>flat</accidental>
        <stem>up</stem>
        <notehead color="#A637B0" parentheses="no">normal</notehead>
        <staff>2</staff>
        <beam number="1">begin</beam>
        </note>
      <note color="#A637B0" id="nh_3331_2913">
        <pitch>
          <step>E</step>
          <alter>-1</alter>
          <octave>2</octave>
        </pitch>
        <duration>5040</duration>
        <voice>2</voice>
        <type>eighth</type>
        <stem>up</stem>
        <notehead color="#A637B0" parentheses="no">normal</notehead>
        <staff>2</staff>
        <beam number="1">continue</beam>
      </note>
      <note color="#A637B0" id="nh_3453_2852">
        <pitch>
          <step>B</step>
          <alter>-1</alter>
          <octave>2</octave>
        </pitch>
        <duration>5040</duration>
        <voice>2</voice>
        <type>eighth</type>
        <stem>up</stem>
        <notehead color="#A637B0" parentheses="no">normal</notehead>
        <staff>2</staff>
        <beam number="1">continue</beam>
      </note>
      <note color="#A637B0" id="nh_3574_2867">
        <pitch>
          <step>A</step>
          <alter>-1</alter>
          <octave>2</octave>
        </pitch>
        <duration>5040</duration>
        <voice>2</voice>
        <type>eighth</type>
        <accidental>flat</accidental>
        <stem>up</stem>
        <notehead color="#A637B0" parentheses="no">normal</notehead>
        <staff>2</staff>
        <beam number="1">end</beam>
      </note>
    </measure>
    <!--========================= Measure 8 ==========================-->
    <measure id="m8-part1" implicit="no" number="8">
      <attributes>
        <time id="ts_858_3608--ts_859_3918" symbol="common">
          <beats>4</beats>
          <beat-type>4</beat-type>
        </time>
      </attributes>
      <note color="#13819E" id="F2part1M82E1">
        <rest/>
        <duration>5040</duration>
        <voice>1</voice>
        <type>eighth</type>
        <staff>1</staff>
      </note>
      <note color="#13819E" id="nh_1050_3666">
        <pitch>
          <step>F</step>
          <octave>4</octave>
        </pitch>
        <duration>5040</duration>
        <voice>1</voice>
        <type>eighth</type>
        <stem>up</stem>
        <notehead color="#13819E" parentheses="no">normal</notehead>
        <staff>1</staff>
        <beam number="1">begin</beam>
        </note>
      <note color="#13819E" id="nh_1132_3679">
        <pitch>
          <step>E</step>
          <alter>-1</alter>
          <octave>4</octave>
        </pitch>
        <duration>5040</duration>
        <voice>1</voice>
        <type>eighth</type>
        <stem>up</stem>
        <notehead color="#13819E" parentheses="no">normal</notehead>
        <staff>1</staff>
        <beam number="1">continue</beam>
      </note>
      <note color="#13819E" id="nh_1256_3696">
        <pitch>
          <step>D</step>
          <octave>4</octave>
        </pitch>
        <duration>5040</duration>
        <voice>1</voice>
        <type>eighth</type>
        <stem>up</stem>
        <notehead color="#13819E" parentheses="no">normal</notehead>
        <staff>1</staff>
        <beam number="1">end</beam>
      </note>
      <note color="#13819E" id="nh_1376_3636">
        <pitch>
          <step>A</step>
          <alter>-1</alter>
          <octave>4</octave>
        </pitch>
        <duration>5040</duration>
        <voice>1</voice>
        <type>eighth</type>
        <accidental>flat</accidental>
        <stem>up</stem>
        <notehead color="#13819E" parentheses="no">normal</notehead>
        <staff>1</staff>
        <beam number="1">begin</beam>
      </note>
      <note color="#13819E" id="nh_1455_3695">
        <pitch>
          <step>D</step>
          <octave>4</octave>
        </pitch>
        <duration>5040</duration>
        <voice>1</voice>
        <type>eighth</type>
        <stem>up</stem>
        <notehead color="#13819E" parentheses="no">normal</notehead>
        <staff>1</staff>
        <beam number="1">continue</beam>
      </note>
      <note color="#13819E" id="nh_1541_3635">
        <pitch>
          <step>A</step>
          <alter>-1</alter>
          <octave>4</octave>
        </pitch>
        <duration>5040</duration>
        <voice>1</voice>
        <type>eighth</type>
        <accidental>flat</accidental>
        <stem>up</stem>
        <notehead color="#13819E" parentheses="no">normal</notehead>
        <staff>1</staff>
        <beam number="1">continue</beam>
      </note>
      <note color="#13819E" id="nh_1623_3648">
        <pitch>
          <step>G</step>
          <octave>4</octave>
        </pitch>
        <duration>5040</duration>
        <voice>1</voice>
        <type>eighth</type>
        <stem>up</stem>
        <notehead color="#13819E" parentheses="no">normal</notehead>
        <staff>1</staff>
        <beam number="1">end</beam>
      </note>
      <backup>
        <duration>40320</duration>
      </backup>
      <note color="#A637B0" id="nh_973_4094">
        <pitch>
          <step>G</step>
          <alter>0</alter>
          <octave>1</octave>
        </pitch>
        <duration>40320</duration>
        <voice>2</voice>
        <type>whole</type>
        <accidental>natural</accidental>
        <stem>up</stem>
        <notehead color="#A637B0" parentheses="no">normal</notehead>
        <staff>2</staff>
      </note>
      <note color="#A637B0" id="nh_972_3989">
        <chord/>
        <pitch>
          <step>G</step>
          <alter>0</alter>
          <octave>2</octave>
        </pitch>
        <duration>40320</duration>
        <voice>2</voice>
        <type>whole</type>
        <accidental>natural</accidental>
        <stem>up</stem>
        <notehead color="#A637B0" parentheses="no">normal</notehead>
        <staff>2</staff>
      </note>
    </measure>
    <!--========================= Measure 9 ==========================-->
    <measure id="m9-part1" implicit="no" number="9">
      <note color="#13819E" id="nh_1756_3648">
        <pitch>
          <step>G</step>
          <octave>4</octave>
        </pitch>
        <duration>15120</duration>
        <voice>1</voice>
        <type>quarter</type>
        <dot/>
        <stem>up</stem>
        <notehead color="#13819E" parentheses="no">normal</notehead>
        <staff>1</staff>
        </note>
      <note color="#13819E" id="nh_1994_3662">
        <pitch>
          <step>F</step>
          <octave>4</octave>
        </pitch>
        <duration>5040</duration>
        <voice>1</voice>
        <type>eighth</type>
        <stem>up</stem>
        <notehead color="#13819E" parentheses="no">normal</notehead>
        <staff>1</staff>
      </note>
      <note color="#13819E" id="nh_2110_3662">
        <pitch>
          <step>F</step>
          <octave>4</octave>
        </pitch>
        <duration>15120</duration>
        <voice>1</voice>
        <type>quarter</type>
        <dot/>
        <stem>up</stem>
        <notehead color="#13819E" parentheses="no">normal</notehead>
        <staff>1</staff>
      </note>
      <note color="#13819E" id="nh_2523_3671">
        <pitch>
          <step>E</step>
          <alter>-1</alter>
          <octave>4</octave>
        </pitch>
        <duration>5040</duration>
        <voice>1</voice>
        <type>eighth</type>
        <stem>up</stem>
        <notehead color="#13819E" parentheses="no">normal</notehead>
        <staff>1</staff>
      </note>
      <backup>
        <duration>40320</duration>
      </backup>
      <note color="#A637B0" id="F2part1M93E1">
        <rest/>
        <duration>5040</duration>
        <voice>2</voice>
        <type>eighth</type>
        <staff>2</staff>
      </note>
      <note color="#A637B0" id="nh_1839_3987">
        <pitch>
          <step>G</step>
          <octave>2</octave>
        </pitch>
        <duration>5040</duration>
        <voice>2</voice>
        <type>eighth</type>
        <stem>up</stem>
        <notehead color="#A637B0" parentheses="no">normal</notehead>
        <staff>2</staff>
        <beam number="1">begin</beam>
        </note>
      <note color="#A637B0" id="nh_1917_3970">
        <pitch>
          <step>A</step>
          <alter>0</alter>
          <octave>2</octave>
        </pitch>
        <duration>5040</duration>
        <voice>2</voice>
        <type>eighth</type>
        <accidental>natural</accidental>
        <stem>up</stem>
        <notehead color="#A637B0" parentheses="no">normal</notehead>
        <staff>2</staff>
        <beam number="1">continue</beam>
      </note>
      <note color="#A637B0" id="nh_1997_3955">
        <pitch>
          <step>B</step>
          <alter>0</alter>
          <octave>2</octave>
        </pitch>
        <duration>5040</duration>
        <voice>2</voice>
        <type>eighth</type>
        <accidental>natural</accidental>
        <stem>up</stem>
        <notehead color="#A637B0" parentheses="no">normal</notehead>
        <staff>2</staff>
        <beam number="1">end</beam>
      </note>
      <note color="#A637B0" id="nh_2114_3941">
        <pitch>
          <step>C</step>
          <octave>3</octave>
        </pitch>
        <duration>5040</duration>
        <voice>2</voice>
        <type>eighth</type>
        <stem>up</stem>
        <notehead color="#A637B0" parentheses="no">normal</notehead>
        <staff>2</staff>
        <beam number="1">begin</beam>
      </note>
      <note color="#A637B0" id="nh_2259_3925">
        <pitch>
          <step>D</step>
          <octave>3</octave>
        </pitch>
        <duration>5040</duration>
        <voice>2</voice>
        <type>eighth</type>
        <stem>up</stem>
        <notehead color="#A637B0" parentheses="no">normal</notehead>
        <staff>2</staff>
        <beam number="1">continue</beam>
      </note>
      <note color="#A637B0" id="nh_2398_3910">
        <pitch>
          <step>E</step>
          <alter>-1</alter>
          <octave>3</octave>
        </pitch>
        <duration>5040</duration>
        <voice>2</voice>
        <type>eighth</type>
        <stem>up</stem>
        <notehead color="#A637B0" parentheses="no">normal</notehead>
        <staff>2</staff>
        <beam number="1">continue</beam>
      </note>
      <note color="#A637B0" id="nh_2524_3893">
        <pitch>
          <step>F</step>
          <octave>3</octave>
        </pitch>
        <duration>5040</duration>
        <voice>2</voice>
        <type>eighth</type>
        <stem>up</stem>
        <notehead color="#A637B0" parentheses="no">normal</notehead>
        <staff>2</staff>
        <beam number="1">end</beam>
      </note>
    </measure>
    <!--========================= Measure 10 =========================-->
    <measure id="m10-part1" implicit="no" number="10">
      <attributes>
        <time id="ts_2654_3577--ts_2659_3887">
          <beats>2</beats>
          <beat-type>4</beat-type>
        </time>
      </attributes>
      <note color="#13819E" id="nh_2729_3668">
        <pitch>
          <step>E</step>
          <alter>-1</alter>
          <octave>4</octave>
        </pitch>
        <duration>5040</duration>
        <voice>1</voice>
        <type>eighth</type>
        <stem>up</stem>
        <notehead color="#13819E" parentheses="no">normal</notehead>
        <staff>1</staff>
        <beam number="1">begin</beam>
        </note>
      <note color="#13819E" id="nh_2811_3653">
        <pitch>
          <step>F</step>
          <octave>4</octave>
        </pitch>
        <duration>5040</duration>
        <voice>1</voice>
        <type>eighth</type>
        <stem>up</stem>
        <notehead color="#13819E" parentheses="no">normal</notehead>
        <staff>1</staff>
        <beam number="1">continue</beam>
      </note>
      <note color="#13819E" id="nh_2888_3651">
        <pitch>
          <step>F</step>
          <alter>1</alter>
          <octave>4</octave>
        </pitch>
        <duration>5040</duration>
        <voice>1</voice>
        <type>eighth</type>
        <accidental>sharp</accidental>
        <stem>up</stem>
        <notehead color="#13819E" parentheses="no">normal</notehead>
        <staff>1</staff>
        <beam number="1">continue</beam>
      </note>
      <note color="#13819E" id="nh_2965_3637">
        <pitch>
          <step>G</step>
          <octave>4</octave>
        </pitch>
        <duration>5040</duration>
        <voice>1</voice>
        <type>eighth</type>
        <stem>up</stem>
        <notehead color="#13819E" parentheses="no">normal</notehead>
        <staff>1</staff>
        <beam number="1">end</beam>
      </note>
      <backup>
        <duration>20160</duration>
      </backup>
      <note color="#5034D4" id="nh_2729_3668">
        <pitch>
          <step>E</step>
          <alter>-1</alter>
          <octave>4</octave>
        </pitch>
        <duration>10080</duration>
        <voice>3</voice>
        <type>quarter</type>
        <stem>down</stem>
        <notehead color="#5034D4" parentheses="no">normal</notehead>
        <staff>1</staff>
        </note>
      <note color="#5034D4" id="nh_2888_3684">
        <pitch>
          <step>D</step>
          <octave>4</octave>
        </pitch>
        <duration>10080</duration>
        <voice>3</voice>
        <type>quarter</type>
        <stem>down</stem>
        <notehead color="#5034D4" parentheses="no">normal</notehead>
        <staff>1</staff>
      </note>
      <backup>
        <duration>20160</duration>
      </backup>
      <note color="#A637B0" id="nh_2732_3877">
        <pitch>
          <step>G</step>
          <octave>3</octave>
        </pitch>
        <duration>10080</duration>
        <voice>4</voice>
        <type>quarter</type>
        <stem>down</stem>
        <notehead color="#A637B0" parentheses="no">normal</notehead>
        <staff>2</staff>
        </note>
      <note color="#A637B0" id="nh_2892_3982">
        <pitch>
          <step>G</step>
          <octave>2</octave>
        </pitch>
        <duration>10080</duration>
        <voice>4</voice>
        <type>quarter</type>
        <stem>up</stem>
        <notehead color="#A637B0" parentheses="no">normal</notehead>
        <staff>2</staff>
      </note>
    </measure>
    <!--========================= Measure 11 =========================-->
    <measure id="m11-part1" implicit="no" number="11">
      <attributes>
        <time id="ts_3092_3592--ts_3095_3909" symbol="common">
          <beats>4</beats>
          <beat-type>4</beat-type>
        </time>
      </attributes>
      <note color="#13819E" id="F2part1M112E1">
        <rest/>
        <duration>5040</duration>
        <voice>1</voice>
        <type>eighth</type>
        <staff>1</staff>
      </note>
      <note color="#13819E" id="nh_3243_3639">
        <pitch>
          <step>G</step>
          <octave>4</octave>
        </pitch>
        <duration>5040</duration>
        <voice>1</voice>
        <type>eighth</type>
        <stem>up</stem>
        <notehead color="#13819E" parentheses="no">normal</notehead>
        <staff>1</staff>
        <beam number="1">begin</beam>
        </note>
      <note color="#13819E" id="nh_3322_3625">
        <pitch>
          <step>A</step>
          <octave>4</octave>
        </pitch>
        <duration>5040</duration>
        <voice>1</voice>
        <type>eighth</type>
        <stem>up</stem>
        <notehead color="#13819E" parentheses="no">normal</notehead>
        <staff>1</staff>
        <beam number="1">continue</beam>
      </note>
      <note color="#13819E" id="nh_3414_3653">
        <pitch>
          <step>F</step>
          <alter>0</alter>
          <octave>4</octave>
        </pitch>
        <duration>5040</duration>
        <tie type="start"/>
        <voice>1</voice>
        <type>eighth</type>
        <accidental>natural</accidental>
        <stem>up</stem>
        <notehead color="#13819E" parentheses="no">normal</notehead>
        <staff>1</staff>
        <beam number="1">end</beam>
        <notations>
          <tied type="start"/>
        </notations>
      </note>
      <note color="#13819E" id="nh_3516_3654">
        <pitch>
          <step>F</step>
          <octave>4</octave>
        </pitch>
        <duration>5040</duration>
        <tie type="stop"/>
        <voice>1</voice>
        <type>eighth</type>
        <stem>up</stem>
        <notehead color="#13819E" parentheses="no">normal</notehead>
        <staff>1</staff>
        <beam number="1">begin</beam>
        <notations>
          <tied type="stop"/>
        </notations>
      </note>
      <note color="#13819E" id="nh_3593_3655">
        <pitch>
          <step>F</step>
          <octave>4</octave>
        </pitch>
        <duration>5040</duration>
        <voice>1</voice>
        <type>eighth</type>
        <stem>up</stem>
        <notehead color="#13819E" parentheses="no">normal</notehead>
        <staff>1</staff>
        <beam number="1">continue</beam>
      </note>
      <note color="#13819E" id="nh_3670_3687">
        <pitch>
          <step>D</step>
          <octave>4</octave>
        </pitch>
        <duration>5040</duration>
        <voice>1</voice>
        <type>eighth</type>
        <stem>up</stem>
        <notehead color="#13819E" parentheses="no">normal</notehead>
        <staff>1</staff>
        <beam number="1">continue</beam>
      </note>
      <note color="#13819E" id="nh_3747_3613">
        <pitch>
          <step>B</step>
          <alter>-1</alter>
          <octave>4</octave>
        </pitch>
        <duration>5040</duration>
        <voice>1</voice>
        <type>eighth</type>
        <stem>up</stem>
        <notehead color="#13819E" parentheses="no">normal</notehead>
        <staff>1</staff>
        <beam number="1">end</beam>
      </note>
      <backup>
        <duration>40320</duration>
      </backup>
      <note color="#A637B0" id="nh_3176_3939">
        <pitch>
          <step>C</step>
          <octave>3</octave>
        </pitch>
        <duration>10080</duration>
        <voice>2</voice>
        <type>quarter</type>
        <stem>up</stem>
        <notehead color="#A637B0" parentheses="no">normal</notehead>
        <staff>2</staff>
        </note>
      <note color="#A637B0" id="nh_3324_3895">
        <pitch>
          <step>F</step>
          <octave>3</octave>
        </pitch>
        <duration>10080</duration>
        <voice>2</voice>
        <type>quarter</type>
        <stem>down</stem>
        <notehead color="#A637B0" parentheses="no">normal</notehead>
        <staff>2</staff>
      </note>
      <note color="#A637B0" id="nh_3517_3848">
        <pitch>
          <step>B</step>
          <alter>-1</alter>
          <octave>3</octave>
        </pitch>
        <duration>20160</duration>
        <voice>2</voice>
        <type>half</type>
        <stem>down</stem>
        <notehead color="#A637B0" parentheses="no">normal</notehead>
        <staff>2</staff>
      </note>
    </measure>
    <!--========================= Measure 12 =========================-->
    <measure id="m12-part1" implicit="no" number="12">
      <note color="#13819E" id="F2part1M122E1">
        <rest/>
        <duration>5040</duration>
        <voice>1</voice>
        <type>eighth</type>
        <staff>1</staff>
      </note>
      <note color="#13819E" id="nh_1055_4782">
        <pitch>
          <step>E</step>
          <alter>0</alter>
          <octave>4</octave>
        </pitch>
        <duration>5040</duration>
        <voice>1</voice>
        <type>eighth</type>
        <accidental>natural</accidental>
        <stem>up</stem>
        <notehead color="#13819E" parentheses="no">normal</notehead>
        <staff>1</staff>
        <beam number="1">begin</beam>
        </note>
      <note color="#13819E" id="nh_1175_4765">
        <pitch>
          <step>F</step>
          <alter>1</alter>
          <octave>4</octave>
        </pitch>
        <duration>5040</duration>
        <voice>1</voice>
        <type>eighth</type>
        <accidental>sharp</accidental>
        <stem>up</stem>
        <notehead color="#13819E" parentheses="no">normal</notehead>
        <staff>1</staff>
        <beam number="1">continue</beam>
      </note>
      <note color="#13819E" id="nh_1299_4795">
        <pitch>
          <step>D</step>
          <octave>4</octave>
        </pitch>
        <duration>5040</duration>
        <tie type="start"/>
        <voice>1</voice>
        <type>eighth</type>
        <stem>up</stem>
        <notehead color="#13819E" parentheses="no">normal</notehead>
        <staff>1</staff>
        <beam number="1">end</beam>
        <notations>
          <tied type="start"/>
        </notations>
      </note>
      <note color="#13819E" id="nh_1419_4793">
        <pitch>
          <step>D</step>
          <octave>4</octave>
        </pitch>
        <duration>5040</duration>
        <tie type="stop"/>
        <voice>1</voice>
        <type>eighth</type>
        <stem>up</stem>
        <notehead color="#13819E" parentheses="no">normal</notehead>
        <staff>1</staff>
        <beam number="1">begin</beam>
        <notations>
          <tied type="stop"/>
        </notations>
      </note>
      <note color="#13819E" id="nh_1563_4792">
        <pitch>
          <step>D</step>
          <octave>4</octave>
        </pitch>
        <duration>5040</duration>
        <voice>1</voice>
        <type>eighth</type>
        <stem>up</stem>
        <notehead color="#13819E" parentheses="no">normal</notehead>
        <staff>1</staff>
        <beam number="1">continue</beam>
      </note>
      <note color="#13819E" id="nh_1716_4759">
        <pitch>
          <step>F</step>
          <alter>1</alter>
          <octave>4</octave>
        </pitch>
        <duration>5040</duration>
        <voice>1</voice>
        <type>eighth</type>
        <accidental>sharp</accidental>
        <stem>up</stem>
        <notehead color="#13819E" parentheses="no">normal</notehead>
        <staff>1</staff>
        <beam number="1">continue</beam>
      </note>
      <note color="#13819E" id="nh_1834_4742">
        <pitch>
          <step>G</step>
          <octave>4</octave>
        </pitch>
        <duration>5040</duration>
        <voice>1</voice>
        <type>eighth</type>
        <stem>up</stem>
        <notehead color="#13819E" parentheses="no">normal</notehead>
        <staff>1</staff>
        <beam number="1">end</beam>
      </note>
      <backup>
        <duration>40320</duration>
      </backup>
      <note color="#A637B0" id="nh_934_5009">
        <pitch>
          <step>A</step>
          <octave>3</octave>
        </pitch>
        <duration>10080</duration>
        <voice>2</voice>
        <type>quarter</type>
        <stem>down</stem>
        <notehead color="#A637B0" parentheses="no">normal</notehead>
        <staff>2</staff>
        </note>
      <note color="#A637B0" id="nh_1181_5069">
        <pitch>
          <step>D</step>
          <octave>3</octave>
        </pitch>
        <duration>10080</duration>
        <voice>2</voice>
        <type>quarter</type>
        <stem>down</stem>
        <notehead color="#A637B0" parentheses="no">normal</notehead>
        <staff>2</staff>
      </note>
      <note color="#A637B0" id="nh_1424_5019">
        <pitch>
          <step>G</step>
          <octave>3</octave>
        </pitch>
        <duration>10080</duration>
        <voice>2</voice>
        <type>quarter</type>
        <stem>down</stem>
        <notehead color="#A637B0" parentheses="no">normal</notehead>
        <staff>2</staff>
      </note>
      <note color="#A637B0" id="nh_1719_4967">
        <pitch>
          <step>C</step>
          <octave>4</octave>
        </pitch>
        <duration>5040</duration>
        <voice>2</voice>
        <type>eighth</type>
        <stem>down</stem>
        <notehead color="#A637B0" parentheses="no">normal</notehead>
        <staff>2</staff>
        <beam number="1">begin</beam>
      </note>
      <note color="#A637B0" id="nh_1839_4983">
        <pitch>
          <step>B</step>
          <alter>-1</alter>
          <octave>3</octave>
        </pitch>
        <duration>5040</duration>
        <voice>2</voice>
        <type>eighth</type>
        <stem>down</stem>
        <notehead color="#A637B0" parentheses="no">normal</notehead>
        <staff>2</staff>
        <beam number="1">end</beam>
      </note>
    </measure>
    <!--========================= Measure 13 =========================-->
    <measure id="m13-part1" implicit="no" number="13">
      <attributes>
        <time id="ts_2025_4674--ts_2030_5018">
          <beats>2</beats>
          <beat-type>4</beat-type>
        </time>
      </attributes>
      <note color="#13819E" id="nh_2147_4773">
        <pitch>
          <step>E</step>
          <alter>0</alter>
          <octave>4</octave>
        </pitch>
        <duration>5040</duration>
        <voice>1</voice>
        <type>eighth</type>
        <accidental>natural</accidental>
        <stem>up</stem>
        <notehead color="#13819E" parentheses="no">normal</notehead>
        <staff>1</staff>
        <beam number="1">begin</beam>
        </note>
      <note color="#13819E" id="nh_2269_4742">
        <pitch>
          <step>G</step>
          <octave>4</octave>
        </pitch>
        <duration>5040</duration>
        <voice>1</voice>
        <type>eighth</type>
        <stem>up</stem>
        <notehead color="#13819E" parentheses="no">normal</notehead>
        <staff>1</staff>
        <beam number="1">end</beam>
      </note>
      <note color="#13819E" id="nh_2391_4757">
        <pitch>
          <step>F</step>
          <alter>1</alter>
          <octave>4</octave>
        </pitch>
        <duration>10080</duration>
        <voice>1</voice>
        <type>quarter</type>
        <accidental>sharp</accidental>
        <stem>up</stem>
        <notehead color="#13819E" parentheses="no">normal</notehead>
        <staff>1</staff>
      </note>
      <backup>
        <duration>20160</duration>
      </backup>
      <note color="#5034D4" id="nh_2147_4773">
        <pitch>
          <step>E</step>
          <alter>0</alter>
          <octave>4</octave>
        </pitch>
        <duration>10080</duration>
        <voice>3</voice>
        <type>quarter</type>
        <accidental>natural</accidental>
        <stem>down</stem>
        <notehead color="#5034D4" parentheses="no">normal</notehead>
        <staff>1</staff>
        </note>
      <note color="#5034D4" id="F2part1M134E1" print-object="no" print-spacing="yes">
        <rest/>
        <duration>10080</duration>
        <voice>3</voice>
        <type>quarter</type>
        <staff>1</staff>
      </note>
      <backup>
        <duration>20160</duration>
      </backup>
      <note color="#A637B0" id="nh_2150_4963">
        <pitch>
          <step>C</step>
          <alter>1</alter>
          <octave>4</octave>
        </pitch>
        <duration>10080</duration>
        <voice>2</voice>
        <type>quarter</type>
        <accidental>sharp</accidental>
        <stem>up</stem>
        <notehead color="#A637B0" parentheses="no">normal</notehead>
        <staff>2</staff>
        </note>
      <note color="#A637B0" id="nh_2392_4951">
        <pitch>
          <step>D</step>
          <octave>4</octave>
        </pitch>
        <duration>10080</duration>
        <voice>2</voice>
        <type>quarter</type>
        <stem>up</stem>
        <notehead color="#A637B0" parentheses="no">normal</notehead>
        <staff>2</staff>
      </note>
      <backup>
        <duration>20160</duration>
      </backup>
      <note color="#0A6206" id="nh_2152_5055">
        <pitch>
          <step>D</step>
          <octave>3</octave>
        </pitch>
        <duration>20160</duration>
        <voice>4</voice>
        <type>half</type>
        <stem>down</stem>
        <notehead color="#0A6206" parentheses="no">normal</notehead>
        <staff>2</staff>
        </note>
    </measure>
    <!--========================= Measure 14 =========================-->
    <measure id="m14-part1" implicit="no" number="14">
      <attributes>
        <time id="ts_2624_4698--ts_2630_5041" symbol="common">
          <beats>4</beats>
          <beat-type>4</beat-type>
        </time>
      </attributes>
      <note color="#13819E" id="F2part1M142E1">
        <rest/>
        <duration>20160</duration>
        <voice>1</voice>
        <type>half</type>
        <staff>1</staff>
      </note>
      <note color="#13819E" id="nh_3318_4742">
        <pitch>
          <step>G</step>
          <octave>4</octave>
        </pitch>
        <duration>20160</duration>
        <voice>1</voice>
        <type>half</type>
        <stem>up</stem>
        <notehead color="#13819E" parentheses="no">normal</notehead>
        <staff>1</staff>
      </note>
      <note color="#13819E" id="nh_3317_4772">
        <chord/>
        <pitch>
          <step>E</step>
          <alter>-1</alter>
          <octave>4</octave>
        </pitch>
        <duration>20160</duration>
        <voice>1</voice>
        <type>half</type>
        <accidental>flat</accidental>
        <stem>up</stem>
        <notehead color="#13819E" parentheses="no">normal</notehead>
        <staff>1</staff>
      </note>
      <note color="#13819E" id="nh_3318_4820">
        <chord/>
        <pitch>
          <step>B</step>
          <alter>-1</alter>
          <octave>3</octave>
        </pitch>
        <duration>20160</duration>
        <voice>1</voice>
        <type>half</type>
        <stem>up</stem>
        <notehead color="#13819E" parentheses="no">normal</notehead>
        <staff>1</staff>
      </note>
      <backup>
        <duration>40320</duration>
      </backup>
      <note color="#A637B0" id="F2part1M143E1">
        <rest/>
        <duration>20160</duration>
        <voice>2</voice>
        <type>half</type>
        <staff>2</staff>
      </note>
      <direction placement="above">
        <direction-type>
          <dynamics default-x="-36" default-y="-80">
            <p/>
          </dynamics>
        </direction-type>
        <staff>2</staff>
        <sound dynamics="44"/>
      </direction>
      <note color="#A637B0" id="nh_3320_5041">
        <pitch>
          <step>E</step>
          <alter>-1</alter>
          <octave>3</octave>
        </pitch>
        <duration>20160</duration>
        <voice>2</voice>
        <type>half</type>
        <stem>down</stem>
        <notehead color="#A637B0" parentheses="no">normal</notehead>
        <staff>2</staff>
        </note>
    </measure>
  </part>
</score-partwise>