<?xml version="1.0" encoding="UTF-8"?><!DOCTYPE score-partwise PUBLIC "-//Recordare//DTD MusicXML 2.0 Partwise//EN"                                "http://www.musicxml.org/dtds/partwise.dtd"><score-partwise version="2.0">  <identification>    <encoding>      <software>Finale 2011 for Macintosh</software>      <software>Dolet Light for Finale 2011</software>      <encoding-date>2014-03-07</encoding-date>      <supports attribute="new-system" element="print" type="yes" value="yes"/>      <supports attribute="new-page" element="print" type="yes" value="yes"/>    </encoding>  </identification>  <defaults>    <scaling>      <millimeters>7.1967</millimeters>      <tenths>40</tenths>    </scaling>    <page-layout>      <page-height>1553</page-height>      <page-width>3891</page-width>      <page-margins type="both">        <left-margin>70</left-margin>        <right-margin>70</right-margin>        <top-margin>88</top-margin>        <bottom-margin>88</bottom-margin>      </page-margins>    </page-layout>    <system-layout>      <system-margins>        <left-margin>0</left-margin>        <right-margin>0</right-margin>      </system-margins>      <system-distance>121</system-distance>      <top-system-distance>70</top-system-distance>    </system-layout>    <appearance>      <line-width type="stem">0.7487</line-width>      <line-width type="beam">5</line-width>      <line-width type="staff">0.7487</line-width>      <line-width type="light barline">0.7487</line-width>      <line-width type="heavy barline">5</line-width>      <line-width type="leger">0.7487</line-width>      <line-width type="ending">0.7487</line-width>      <line-width type="wedge">0.7487</line-width>      <line-width type="enclosure">0.7487</line-width>      <line-width type="tuplet bracket">0.7487</line-width>      <note-size type="grace">60</note-size>      <note-size type="cue">60</note-size>    </appearance>    <music-font font-family="Maestro" font-size="20.4"/>    <word-font font-family="Times New Roman" font-size="10.2"/>    <lyric-font font-family="Times New Roman" font-size="10.2" name="verse"/>  </defaults>  <credit page="1">    <credit-words default-x="70" default-y="1461" valign="top">Conducteur</credit-words>  </credit>  <part-list>    <score-part id="P1">      <part-name print-object="no">MusicXML Part</part-name>      <score-instrument id="P1-I2">        <instrument-name>Grand Piano</instrument-name>      </score-instrument>      <midi-instrument id="P1-I2">        <midi-channel>1</midi-channel>        <midi-program>1</midi-program>      </midi-instrument>    </score-part>  </part-list>  <!--=========================================================-->  <part id="P1">    <measure number="1" width="134">      <print>        <system-layout>          <system-margins>            <left-margin>70</left-margin>            <right-margin>0</right-margin>          </system-margins>          <top-system-distance>211</top-system-distance>        </system-layout>        <measure-numbering>system</measure-numbering>      </print>      <attributes>        <divisions>2</divisions>        <key>          <fifths>-1</fifths>          <mode>major</mode>        </key>        <time symbol="cut">          <beats>2</beats>          <beat-type>2</beat-type>        </time>        <clef>          <sign>G</sign>          <line>2</line>        </clef>      </attributes>      <sound tempo="120"/>      <note default-x="109">        <pitch>          <step>G</step>          <octave>4</octave>        </pitch>        <duration>4</duration>        <voice>1</voice>        <type>half</type>        <stem default-y="6">up</stem>        <lyric default-y="-95" number="1">          <syllabic>begin</syllabic>          <text font-family="Times">Sei</text>        </lyric>      </note>    </measure>    <!--=======================================================-->    <measure number="2" width="57">      <note default-x="14">        <pitch>          <step>B</step>          <alter>-1</alter>          <octave>4</octave>        </pitch>        <duration>8</duration>        <voice>1</voice>        <type>whole</type>        <lyric default-y="-95" number="1" relative-x="3">          <syllabic>end</syllabic>          <text font-family="Times">gneur,</text>        </lyric>      </note>    </measure>    <!--=======================================================-->    <measure number="3" width="38">      <note default-x="13">        <pitch>          <step>A</step>          <octave>4</octave>        </pitch>        <duration>4</duration>        <voice>1</voice>        <type>half</type>        <stem default-y="10.5">up</stem>        <lyric default-y="-95" number="1">          <syllabic>single</syllabic>          <text font-family="Times">de</text>        </lyric>      </note>    </measure>    <!--=======================================================-->    <measure number="4" width="38">      <note default-x="14">        <pitch>          <step>G</step>          <octave>4</octave>        </pitch>        <duration>4</duration>        <voice>1</voice>        <type>half</type>        <stem default-y="6">up</stem>        <lyric default-y="-95" number="1">          <syllabic>single</syllabic>          <text font-family="Times">qui</text>        </lyric>      </note>    </measure>    <!--=======================================================-->    <measure number="5" width="38">      <note default-x="14">        <pitch>          <step>F</step>          <octave>4</octave>        </pitch>        <duration>4</duration>        <voice>1</voice>        <type>half</type>        <stem default-y="0">up</stem>        <lyric default-y="-95" number="1">          <syllabic>single</syllabic>          <text font-family="Times">je</text>        </lyric>      </note>    </measure>    <!--=======================================================-->    <measure number="6" width="57">      <note default-x="13">        <pitch>          <step>B</step>          <alter>-1</alter>          <octave>4</octave>        </pitch>        <duration>8</duration>        <voice>1</voice>        <type>whole</type>        <lyric default-y="-95" number="1">          <syllabic>single</syllabic>          <text font-family="Times">tiens</text>        </lyric>      </note>    </measure>    <!--=======================================================-->    <measure number="7" width="38">      <note default-x="14">        <pitch>          <step>C</step>          <octave>5</octave>        </pitch>        <duration>4</duration>        <voice>1</voice>        <type>half</type>        <stem default-y="-50">down</stem>        <lyric default-y="-95" number="1">          <syllabic>single</syllabic>          <text font-family="Times">la</text>        </lyric>      </note>    </measure>    <!--=======================================================-->    <measure number="8" width="38">      <note default-x="14">        <pitch>          <step>D</step>          <octave>5</octave>        </pitch>        <duration>4</duration>        <voice>1</voice>        <type>half</type>        <stem default-y="-45">down</stem>        <lyric default-y="-95" number="1">          <syllabic>begin</syllabic>          <text font-family="Times">cou</text>        </lyric>      </note>    </measure>    <!--=======================================================-->    <measure number="9" width="38">      <note default-x="14">        <pitch>          <step>C</step>          <octave>5</octave>        </pitch>        <duration>4</duration>        <voice>1</voice>        <type>half</type>        <stem default-y="-50">down</stem>        <lyric default-y="-95" number="1">          <syllabic>middle</syllabic>          <text font-family="Times">ron</text>        </lyric>      </note>    </measure>    <!--=======================================================-->    <measure number="10" width="57">      <note default-x="13">        <pitch>          <step>C</step>          <octave>5</octave>        </pitch>        <duration>8</duration>        <voice>1</voice>        <type>whole</type>        <lyric default-y="-95" number="1">          <syllabic>end</syllabic>          <text font-family="Times">ne</text>          <elision> </elision>          <syllabic>single</syllabic>          <text font-family="Times">et</text>        </lyric>      </note>    </measure>    <!--=======================================================-->    <measure number="11" width="38">      <note default-x="14">        <pitch>          <step>D</step>          <octave>5</octave>        </pitch>        <duration>4</duration>        <voice>1</voice>        <type>half</type>        <stem default-y="-45">down</stem>        <lyric default-y="-95" number="1">          <syllabic>single</syllabic>          <text font-family="Times">la</text>        </lyric>      </note>    </measure>    <!--=======================================================-->    <measure number="12" width="57">      <note default-x="13">        <pitch>          <step>B</step>          <alter>-1</alter>          <octave>4</octave>        </pitch>        <duration>8</duration>        <voice>1</voice>        <type>whole</type>        <lyric default-y="-95" number="1">          <syllabic>begin</syllabic>          <text font-family="Times">vi</text>        </lyric>      </note>    </measure>    <!--=======================================================-->    <measure number="13" width="57">      <note default-x="13">        <pitch>          <step>A</step>          <octave>4</octave>        </pitch>        <duration>8</duration>        <voice>1</voice>        <type>whole</type>        <lyric default-y="-95" number="1">          <syllabic>end</syllabic>          <text font-family="Times">e</text>          <elision> </elision>          <syllabic>single</syllabic>          <text font-family="Times">;</text>        </lyric>      </note>    </measure>    <!--=======================================================-->    <measure number="14" width="57">      <note default-x="20">        <rest/>        <duration>8</duration>        <voice>1</voice>        <type>whole</type>      </note>    </measure>    <!--=======================================================-->    <measure number="15" width="57">      <note default-x="14">        <pitch>          <step>G</step>          <octave>4</octave>        </pitch>        <duration>8</duration>        <voice>1</voice>        <type>whole</type>        <lyric default-y="-95" number="1">          <syllabic>begin</syllabic>          <text font-family="Times">L'u</text>        </lyric>      </note>    </measure>    <!--=======================================================-->    <measure number="16" width="38">      <note default-x="14">        <pitch>          <step>B</step>          <alter>-1</alter>          <octave>4</octave>        </pitch>        <duration>4</duration>        <voice>1</voice>        <type>half</type>        <stem default-y="-55">down</stem>        <lyric default-y="-95" number="1">          <syllabic>end</syllabic>          <text font-family="Times">ne</text>          <elision> </elision>          <syllabic>single</syllabic>          <text font-family="Times">et</text>        </lyric>      </note>    </measure>    <!--=======================================================-->    <measure number="17" width="38">      <note default-x="14">        <pitch>          <step>B</step>          <alter>-1</alter>          <octave>4</octave>        </pitch>        <duration>4</duration>        <voice>1</voice>        <type>half</type>        <stem default-y="-55">down</stem>        <lyric default-y="-95" number="1">          <syllabic>begin</syllabic>          <text font-family="Times">l'au</text>        </lyric>      </note>    </measure>    <!--=======================================================-->    <measure number="18" width="38">      <note default-x="14">        <pitch>          <step>A</step>          <octave>4</octave>        </pitch>        <duration>4</duration>        <voice>1</voice>        <type>half</type>        <stem default-y="10.5">up</stem>        <lyric default-y="-95" number="1">          <syllabic>end</syllabic>          <text font-family="Times">tre</text>        </lyric>      </note>    </measure>    <!--=======================================================-->    <measure number="19" width="38">      <note default-x="13">        <pitch>          <step>G</step>          <octave>4</octave>        </pitch>        <duration>4</duration>        <voice>1</voice>        <type>half</type>        <stem default-y="6">up</stem>        <lyric default-y="-95" number="1">          <syllabic>single</syllabic>          <text font-family="Times">sans</text>        </lyric>      </note>    </measure>    <!--=======================================================-->    <measure number="20" width="57">      <note default-x="13">        <pitch>          <step>D</step>          <octave>5</octave>        </pitch>        <duration>8</duration>        <voice>1</voice>        <type>whole</type>        <lyric default-y="-95" number="1">          <syllabic>single</syllabic>          <text font-family="Times">toy,</text>        </lyric>      </note>    </measure>    <!--=======================================================-->    <measure number="21" width="57">      <note default-x="14">        <pitch>          <step>C</step>          <octave>5</octave>        </pitch>        <duration>8</duration>        <voice>1</voice>        <type>whole</type>        <lyric default-y="-95" number="1">          <syllabic>single</syllabic>          <text font-family="Times">par</text>        </lyric>      </note>    </measure>    <!--=======================================================-->    <measure number="22" width="38">      <note default-x="14">        <pitch>          <step>B</step>          <alter>-1</alter>          <octave>4</octave>        </pitch>        <duration>4</duration>        <voice>1</voice>        <type>half</type>        <stem default-y="-55">down</stem>        <lyric default-y="-95" number="1">          <syllabic>single</syllabic>          <text font-family="Times">un</text>        </lyric>      </note>    </measure>    <!--=======================================================-->    <measure number="23" width="38">      <note default-x="14">        <pitch>          <step>B</step>          <alter>-1</alter>          <octave>4</octave>        </pitch>        <duration>4</duration>        <voice>1</voice>        <type>half</type>        <stem default-y="-55">down</stem>        <lyric default-y="-95" number="1">          <syllabic>single</syllabic>          <text font-family="Times">fils</text>        </lyric>      </note>    </measure>    <!--=======================================================-->    <measure number="24" width="38">      <note default-x="14">        <pitch>          <step>A</step>          <octave>4</octave>        </pitch>        <duration>4</duration>        <voice>1</voice>        <type>half</type>        <stem default-y="10.5">up</stem>        <lyric default-y="-95" number="1">          <syllabic>begin</syllabic>          <text font-family="Times">in</text>        </lyric>      </note>    </measure>    <!--=======================================================-->    <measure number="25" width="38">      <note default-x="13">        <pitch>          <step>G</step>          <octave>4</octave>        </pitch>        <duration>4</duration>        <voice>1</voice>        <type>half</type>        <stem default-y="6">up</stem>        <lyric default-y="-95" number="1">          <syllabic>middle</syllabic>          <text font-family="Times">hu</text>        </lyric>      </note>    </measure>    <!--=======================================================-->    <measure number="26" width="57">      <note default-x="13">        <pitch>          <step>G</step>          <octave>4</octave>        </pitch>        <duration>8</duration>        <voice>1</voice>        <type>whole</type>        <lyric default-y="-95" number="1" relative-x="13">          <syllabic>end</syllabic>          <text font-family="Times">main,</text>        </lyric>      </note>    </measure>    <!--=======================================================-->    <measure number="27" width="57">      <note default-x="19">        <rest/>        <duration>8</duration>        <voice>1</voice>        <type>whole</type>      </note>    </measure>    <!--=======================================================-->    <measure number="28" width="57">      <note default-x="13">        <pitch>          <step>D</step>          <octave>5</octave>        </pitch>        <duration>8</duration>        <voice>1</voice>        <type>whole</type>        <lyric default-y="-95" number="1">          <syllabic>single</syllabic>          <text font-family="Times">Me</text>        </lyric>      </note>    </measure>    <!--=======================================================-->    <measure number="29" width="44">      <note default-x="23">        <pitch>          <step>E</step>          <alter>-1</alter>          <octave>5</octave>        </pitch>        <duration>4</duration>        <voice>1</voice>        <type>half</type>        <accidental>flat</accidental>        <stem default-y="-40.5">down</stem>        <lyric default-y="-95" number="1">          <syllabic>single</syllabic>          <text font-family="Times">va</text>        </lyric>      </note>    </measure>    <!--=======================================================-->    <measure number="30" width="38">      <note default-x="14">        <pitch>          <step>C</step>          <octave>5</octave>        </pitch>        <duration>4</duration>        <voice>1</voice>        <type>half</type>        <stem default-y="-50">down</stem>        <lyric default-y="-95" number="1">          <syllabic>begin</syllabic>          <text font-family="Times">bien</text>        </lyric>      </note>    </measure>    <!--=======================================================-->    <measure number="31" width="38">      <note default-x="14">        <pitch>          <step>B</step>          <alter>-1</alter>          <octave>4</octave>        </pitch>        <duration>4</duration>        <voice>1</voice>        <type>half</type>        <stem default-y="-55">down</stem>        <lyric default-y="-95" number="1">          <syllabic>end</syllabic>          <text font-family="Times">tost</text>        </lyric>      </note>    </measure>    <!--=======================================================-->    <measure number="32" width="38">      <note default-x="13">        <pitch>          <step>G</step>          <octave>4</octave>        </pitch>        <duration>4</duration>        <voice>1</voice>        <type>half</type>        <stem default-y="6">up</stem>        <lyric default-y="-95" number="1">          <syllabic>begin</syllabic>          <text font-family="Times">es</text>        </lyric>      </note>    </measure>    <!--=======================================================-->    <measure number="33" width="38">      <note default-x="14">        <pitch>          <step>B</step>          <alter>-1</alter>          <octave>4</octave>        </pitch>        <duration>4</duration>        <voice>1</voice>        <type>half</type>        <stem default-y="-55">down</stem>        <lyric default-y="-95" number="1">          <syllabic>end</syllabic>          <text font-family="Times">tre</text>        </lyric>      </note>    </measure>    <!--=======================================================-->    <measure number="34" width="38">      <note default-x="14">        <pitch>          <step>B</step>          <alter>-1</alter>          <octave>4</octave>        </pitch>        <duration>4</duration>        <voice>1</voice>        <type>half</type>        <stem default-y="-55">down</stem>        <lyric default-y="-95" number="1">          <syllabic>begin</syllabic>          <text font-family="Times">ra</text>        </lyric>      </note>    </measure>    <!--=======================================================-->    <measure number="35" width="57">      <note default-x="13">        <pitch>          <step>C</step>          <octave>5</octave>        </pitch>        <duration>8</duration>        <voice>1</voice>        <type>whole</type>        <lyric default-y="-95" number="1">          <syllabic>middle</syllabic>          <text font-family="Times">vi</text>        </lyric>      </note>    </measure>    <!--=======================================================-->    <measure number="36" width="57">      <note default-x="14">        <pitch>          <step>D</step>          <octave>5</octave>        </pitch>        <duration>8</duration>        <voice>1</voice>        <type>whole</type>        <lyric default-y="-95" number="1" relative-x="3">          <syllabic>end</syllabic>          <text font-family="Times">e</text>          <elision> </elision>          <syllabic>single</syllabic>          <text font-family="Times">;</text>        </lyric>      </note>    </measure>    <!--=======================================================-->    <measure number="37" width="57">      <note default-x="20">        <rest/>        <duration>8</duration>        <voice>1</voice>        <type>whole</type>      </note>    </measure>    <!--=======================================================-->    <measure number="38" width="38">      <note default-x="14">        <pitch>          <step>G</step>          <octave>5</octave>        </pitch>        <duration>4</duration>        <voice>1</voice>        <type>half</type>        <stem default-y="-30">down</stem>        <lyric default-y="-95" number="1">          <syllabic>single</syllabic>          <text font-family="Times">Vien</text>        </lyric>      </note>    </measure>    <!--=======================================================-->    <measure number="39" width="57">      <note default-x="13">        <pitch>          <step>G</step>          <octave>5</octave>        </pitch>        <duration>8</duration>        <voice>1</voice>        <type>whole</type>        <lyric default-y="-95" number="1">          <syllabic>single</syllabic>          <text font-family="Times">donc</text>        </lyric>      </note>    </measure>    <!--=======================================================-->    <measure number="40" width="38">      <note default-x="14">        <pitch>          <step>F</step>          <octave>5</octave>        </pitch>        <duration>4</duration>        <voice>1</voice>        <type>half</type>        <stem default-y="-35.5">down</stem>        <lyric default-y="-95" number="1">          <syllabic>single</syllabic>          <text font-family="Times">à</text>        </lyric>      </note>    </measure>    <!--=======================================================-->    <measure number="41" width="38">      <note default-x="14">        <pitch>          <step>E</step>          <octave>5</octave>        </pitch>        <duration>4</duration>        <voice>1</voice>        <type>half</type>        <stem default-y="-40.5">down</stem>        <lyric default-y="-80" number="1">          <syllabic>single</syllabic>          <text font-family="Times">mon</text>        </lyric>      </note>    </measure>    <!--=======================================================-->    <measure number="42" width="38">      <note default-x="14">        <pitch>          <step>D</step>          <octave>5</octave>        </pitch>        <duration>4</duration>        <voice>1</voice>        <type>half</type>        <stem default-y="-45">down</stem>        <lyric default-y="-95" number="1">          <syllabic>begin</syllabic>          <text font-family="Times">se</text>        </lyric>      </note>    </measure>    <!--=======================================================-->    <measure number="43" width="57">      <note default-x="13">        <pitch>          <step>C</step>          <octave>5</octave>        </pitch>        <duration>8</duration>        <voice>1</voice>        <type>whole</type>        <lyric default-y="-95" number="1">          <syllabic>end</syllabic>          <text font-family="Times">cours,</text>        </lyric>      </note>    </measure>    <!--=======================================================-->    <measure number="44" width="38">      <note default-x="14">        <pitch>          <step>C</step>          <octave>5</octave>        </pitch>        <duration>4</duration>        <voice>1</voice>        <type>half</type>        <stem default-y="-50">down</stem>        <lyric default-y="-95" number="1">          <syllabic>single</syllabic>          <text font-family="Times">pren</text>        </lyric>      </note>    </measure>    <!--=======================================================-->    <measure number="45" width="57">      <note default-x="13">        <pitch>          <step>D</step>          <octave>5</octave>        </pitch>        <duration>8</duration>        <voice>1</voice>        <type>whole</type>        <lyric default-y="-95" number="1">          <syllabic>single</syllabic>          <text font-family="Times">ma</text>        </lyric>      </note>    </measure>    <!--=======================================================-->    <measure number="46" width="38">      <note default-x="14">        <pitch>          <step>E</step>          <octave>5</octave>        </pitch>        <duration>4</duration>        <voice>1</voice>        <type>half</type>        <stem default-y="-40.5">down</stem>        <lyric default-y="-95" number="1">          <syllabic>begin</syllabic>          <text font-family="Times">dé</text>        </lyric>      </note>    </measure>    <!--=======================================================-->    <measure number="47" width="57">      <note default-x="14">        <pitch>          <step>F</step>          <octave>5</octave>        </pitch>        <duration>8</duration>        <voice>1</voice>        <type>whole</type>        <lyric default-y="-95" number="1">          <syllabic>middle</syllabic>          <text font-family="Times">fen</text>        </lyric>      </note>    </measure>    <!--=======================================================-->    <measure number="48" width="57">      <note default-x="13">        <pitch>          <step>E</step>          <octave>5</octave>        </pitch>        <duration>8</duration>        <voice>1</voice>        <type>whole</type>        <lyric default-y="-95" number="1">          <syllabic>end</syllabic>          <text font-family="Times">se</text>          <elision> </elision>          <syllabic>single</syllabic>          <text font-family="Times">en</text>        </lyric>      </note>    </measure>    <!--=======================================================-->    <measure number="49" width="57">      <note default-x="13">        <pitch>          <step>D</step>          <octave>5</octave>        </pitch>        <duration>8</duration>        <voice>1</voice>        <type>whole</type>        <lyric default-y="-95" number="1" relative-x="16">          <syllabic>single</syllabic>          <text font-family="Times">main,</text>        </lyric>      </note>    </measure>    <!--=======================================================-->    <measure number="50" width="57">      <note default-x="20">        <rest/>        <duration>8</duration>        <voice>1</voice>        <type>whole</type>      </note>    </measure>    <!--=======================================================-->    <measure number="51" width="57">      <note default-x="13">        <pitch>          <step>D</step>          <octave>5</octave>        </pitch>        <duration>8</duration>        <voice>1</voice>        <type>whole</type>        <lyric default-y="-95" number="1">          <syllabic>begin</syllabic>          <text font-family="Times">En</text>        </lyric>      </note>    </measure>    <!--=======================================================-->    <measure number="52" width="38">      <note default-x="14">        <pitch>          <step>F</step>          <octave>5</octave>        </pitch>        <duration>4</duration>        <voice>1</voice>        <type>half</type>        <stem default-y="-35.5">down</stem>        <lyric default-y="-95" number="1">          <syllabic>end</syllabic>          <text font-family="Times">ten</text>        </lyric>      </note>    </measure>    <!--=======================================================-->    <measure number="53" width="38">      <note default-x="14">        <pitch>          <step>F</step>          <octave>5</octave>        </pitch>        <duration>4</duration>        <voice>1</voice>        <type>half</type>        <stem default-y="-35.5">down</stem>        <lyric default-y="-95" number="1">          <syllabic>single</syllabic>          <text font-family="Times">mes</text>        </lyric>      </note>    </measure>    <!--=======================================================-->    <measure number="54" width="38">      <note default-x="14">        <pitch>          <step>E</step>          <octave>5</octave>        </pitch>        <duration>4</duration>        <voice>1</voice>        <type>half</type>        <stem default-y="-40.5">down</stem>        <lyric default-y="-95" number="1">          <syllabic>begin</syllabic>          <text font-family="Times">tris</text>        </lyric>      </note>    </measure>    <!--=======================================================-->    <measure number="55" width="38">      <note default-x="14">        <pitch>          <step>D</step>          <octave>5</octave>        </pitch>        <duration>4</duration>        <voice>1</voice>        <type>half</type>        <stem default-y="-45">down</stem>        <lyric default-y="-95" number="1">          <syllabic>end</syllabic>          <text font-family="Times">tes</text>        </lyric>      </note>    </measure>    <!--=======================================================-->    <measure number="56" width="57">      <note default-x="14">        <pitch>          <step>C</step>          <octave>5</octave>        </pitch>        <duration>8</duration>        <voice>1</voice>        <type>whole</type>        <lyric default-y="-95" number="1">          <syllabic>single</syllabic>          <text font-family="Times">cris,</text>        </lyric>      </note>    </measure>    <!--=======================================================-->    <measure number="57" width="57">      <note default-x="13">        <pitch>          <step>A</step>          <octave>4</octave>        </pitch>        <duration>8</duration>        <voice>1</voice>        <type>whole</type>        <lyric default-y="-95" number="1">          <syllabic>single</syllabic>          <text font-family="Times">voy</text>        </lyric>      </note>    </measure>    <!--=======================================================-->    <measure number="58" width="38">      <note default-x="14">        <pitch>          <step>B</step>          <alter>-1</alter>          <octave>4</octave>        </pitch>        <duration>4</duration>        <voice>1</voice>        <type>half</type>        <stem default-y="-55">down</stem>        <lyric default-y="-95" number="1">          <syllabic>single</syllabic>          <text font-family="Times">ma</text>        </lyric>      </note>    </measure>    <!--=======================================================-->    <measure number="59" width="38">      <note default-x="14">        <pitch>          <step>C</step>          <octave>5</octave>        </pitch>        <duration>4</duration>        <voice>1</voice>        <type>half</type>        <stem default-y="-50">down</stem>        <lyric default-y="-95" number="1">          <syllabic>begin</syllabic>          <text font-family="Times">pei</text>        </lyric>      </note>    </measure>    <!--=======================================================-->    <measure number="60" width="38">      <note default-x="14">        <pitch>          <step>D</step>          <octave>5</octave>        </pitch>        <duration>4</duration>        <voice>1</voice>        <type>half</type>        <stem default-y="-45">down</stem>        <lyric default-y="-95" number="1">          <syllabic>end</syllabic>          <text font-family="Times">ne</text>          <elision> </elision>          <syllabic>begin</syllabic>          <text font-family="Times">ex</text>        </lyric>      </note>    </measure>    <!--=======================================================-->    <measure number="61" width="38">      <note default-x="14">        <pitch>          <step>C</step>          <octave>5</octave>        </pitch>        <duration>4</duration>        <voice>1</voice>        <type>half</type>        <stem default-y="-50">down</stem>        <lyric default-y="-95" number="1">          <syllabic>middle</syllabic>          <text font-family="Times">ces</text>        </lyric>      </note>    </measure>    <!--=======================================================-->    <measure number="62" width="69">      <note default-x="14">        <pitch>          <step>B</step>          <alter>-1</alter>          <octave>4</octave>        </pitch>        <duration>4</duration>        <voice>1</voice>        <type>half</type>        <stem default-y="-55">down</stem>        <lyric default-y="-95" number="1">          <syllabic>middle</syllabic>          <text font-family="Times">si</text>        </lyric>      </note>      <note default-x="39">        <rest/>        <duration>4</duration>        <voice>1</voice>        <type>half</type>      </note>    </measure>    <!--=======================================================-->    <measure number="63" width="57">      <note default-x="14">        <pitch>          <step>A</step>          <octave>4</octave>        </pitch>        <duration>8</duration>        <voice>1</voice>        <type>whole</type>        <lyric default-y="-95" number="1">          <syllabic>end</syllabic>          <text font-family="Times">ve,</text>        </lyric>      </note>    </measure>    <!--=======================================================-->    <measure number="64" width="39">      <note default-x="13">        <rest/>        <duration>4</duration>        <voice>1</voice>        <type>half</type>      </note>    </measure>    <!--=======================================================-->    <measure number="65" width="38">      <note default-x="14">        <pitch>          <step>D</step>          <octave>5</octave>        </pitch>        <duration>4</duration>        <voice>1</voice>        <type>half</type>        <stem default-y="-45">down</stem>        <lyric default-y="-95" number="1">          <syllabic>single</syllabic>          <text font-family="Times">Et</text>        </lyric>      </note>    </measure>    <!--=======================================================-->    <measure number="66" width="38">      <note default-x="14">        <pitch>          <step>D</step>          <octave>5</octave>        </pitch>        <duration>4</duration>        <voice>1</voice>        <type>half</type>        <stem default-y="-45">down</stem>        <lyric default-y="-95" number="1">          <syllabic>begin</syllabic>          <text font-family="Times">pré</text>        </lyric>      </note>    </measure>    <!--=======================================================-->    <measure number="67" width="38">      <note default-x="14">        <pitch>          <step>E</step>          <octave>5</octave>        </pitch>        <duration>4</duration>        <voice>1</voice>        <type>half</type>        <stem default-y="-40.5">down</stem>        <lyric default-y="-95" number="1">          <syllabic>end</syllabic>          <text font-family="Times">te</text>          <elision> </elision>          <syllabic>single</syllabic>          <text font-family="Times">à</text>        </lyric>      </note>    </measure>    <!--=======================================================-->    <measure number="68" width="38">      <note default-x="14">        <pitch>          <step>G</step>          <octave>5</octave>        </pitch>        <duration>4</duration>        <voice>1</voice>        <type>half</type>        <stem default-y="-30">down</stem>        <lyric default-y="-95" number="1">          <syllabic>single</syllabic>          <text font-family="Times">ma</text>        </lyric>      </note>    </measure>    <!--=======================================================-->    <measure number="69" width="38">      <note default-x="14">        <pitch>          <step>F</step>          <octave>5</octave>        </pitch>        <duration>4</duration>        <voice>1</voice>        <type>half</type>        <stem default-y="-35.5">down</stem>        <lyric default-y="-95" number="1">          <syllabic>begin</syllabic>          <text font-family="Times">prie</text>        </lyric>      </note>    </measure>    <!--=======================================================-->    <measure number="70" width="57">      <note default-x="13">        <pitch>          <step>G</step>          <octave>5</octave>        </pitch>        <duration>8</duration>        <voice>1</voice>        <type>whole</type>        <lyric default-y="-95" number="1">          <syllabic>end</syllabic>          <text font-family="Times">re</text>          <elision> </elision>          <syllabic>begin</syllabic>          <text font-family="Times">u</text>        </lyric>      </note>    </measure>    <!--=======================================================-->    <measure number="71" width="38">      <note default-x="14">        <pitch>          <step>D</step>          <octave>5</octave>        </pitch>        <duration>4</duration>        <voice>1</voice>        <type>half</type>        <stem default-y="-45">down</stem>        <lyric default-y="-95" number="1" relative-x="3">          <syllabic>end</syllabic>          <text font-family="Times">ne</text>        </lyric>      </note>    </measure>    <!--=======================================================-->    <measure number="72" width="44">      <note default-x="24">        <pitch>          <step>E</step>          <alter>-1</alter>          <octave>5</octave>        </pitch>        <duration>4</duration>        <voice>1</voice>        <type>half</type>        <accidental>flat</accidental>        <stem default-y="-40.5">down</stem>        <lyric default-y="-95" number="1">          <syllabic>begin</syllabic>          <text font-family="Times">o</text>        </lyric>      </note>    </measure>    <!--=======================================================-->    <measure number="73" width="38">      <note default-x="14">        <pitch>          <step>D</step>          <octave>5</octave>        </pitch>        <duration>4</duration>        <voice>1</voice>        <type>half</type>        <stem default-y="-45">down</stem>        <lyric default-y="-95" number="1">          <syllabic>middle</syllabic>          <text font-family="Times">reil</text>        </lyric>      </note>    </measure>    <!--=======================================================-->    <measure number="74" width="57">      <note default-x="13">        <pitch>          <step>C</step>          <octave>5</octave>        </pitch>        <duration>8</duration>        <voice>1</voice>        <type>whole</type>        <lyric default-y="-95" number="1">          <syllabic>end</syllabic>          <text font-family="Times">le</text>          <elision> </elision>          <syllabic>begin</syllabic>          <text font-family="Times">at</text>        </lyric>      </note>    </measure>    <!--=======================================================-->    <measure number="75" width="38">      <note default-x="14">        <pitch>          <step>B</step>          <alter>-1</alter>          <octave>4</octave>        </pitch>        <duration>4</duration>        <voice>1</voice>        <type>half</type>        <stem default-y="-55">down</stem>        <lyric default-y="-95" number="1">          <syllabic>middle</syllabic>          <text font-family="Times">ten</text>        </lyric>      </note>    </measure>    <!--=======================================================-->    <measure number="76" width="57">      <note default-x="13">        <pitch>          <step>A</step>          <octave>4</octave>        </pitch>        <duration>8</duration>        <voice>1</voice>        <type>whole</type>        <lyric default-y="-95" number="1">          <syllabic>middle</syllabic>          <text font-family="Times">ti</text>        </lyric>      </note>    </measure>    <!--=======================================================-->    <measure number="77" width="98">      <note default-x="14">        <pitch>          <step>G</step>          <octave>4</octave>        </pitch>        <duration>16</duration>        <voice>1</voice>        <type>breve</type>        <lyric default-y="-95" number="1">          <syllabic>end</syllabic>          <text font-family="Times">ve.</text>        </lyric>      </note>      <barline location="right">        <bar-style>light-heavy</bar-style>      </barline>    </measure>  </part>  <!--=========================================================--></score-partwise>