<svg id="logo_fusionné" data-name="logo fusionné" xmlns="http://www.w3.org/2000/svg" viewBox="0 0 597 150"><defs><style>.cls-1{fill:#fff;}</style></defs><title>logo-neuma</title><path class="cls-1" d="M386,0V59h50v49c0,22-14,31-30,31H388v11h14c28,0,46-13,46-42V59h52v49c0,21-11,31-30,31H456v11h10c30,0,46-13,46-42V0Z"/><path class="cls-1" d="M248,139c-17,0-30-11-30-31V59h52V0H206V108c0,29,18,42,46,42h19V139Z"/><path class="cls-1" d="M352,0V139H333c-17,0-30-13-30-31V0H291V108c0,27,19,42,46,42h27V0Z"/><polygon class="cls-1" points="540 0 540 12 585 12 585 88 533 88 533 150 597 150 597 0 540 0"/><path class="cls-1" d="M119,0V59h52V95C105,95,46,43,12,0H0V150H12V68.32C28.5,104,108.37,150,171,150h12V0Z"/></svg>