<score-partwise version="2.0">
  <movement-title>ScoreQL : 1st voice</movement-title>
  <identification>
    <rights>©</rights>
    <encoding>
      <software>ScoreQL</software>
    </encoding>
  </identification>
  <part-list>
    <score-part id="P1">
      <part-name>Piano</part-name>
      <score-instrument id="P1-I1">
        <instrument-name>Piano</instrument-name>
      </score-instrument>
    </score-part>
  </part-list>
<!--=========================================================-->
<part id="P1">
  <measure number="1" width="283">
    <print page-number="1">
      <system-layout>
        <system-margins>
          <left-margin>70</left-margin>
          <right-margin>0</right-margin>
        </system-margins>
        <top-system-distance>172</top-system-distance>
      </system-layout>
    </print>
    <attributes>
      <divisions>2</divisions>
      <key>
        <fifths>0</fifths>
        <mode>major</mode>
      </key>
      <time symbol="cut">
        <beats>2</beats>
        <beat-type>2</beat-type>
      </time>
      <staves>2</staves>
      <clef number="1">
        <sign>G</sign>
        <line>2</line>
      </clef>
      <clef number="2">
        <sign>F</sign>
        <line>4</line>
      </clef>
    </attributes>
    <sound tempo="120"/>
    <note default-x="88">
      <pitch>
        <step>E</step>
        <octave>5</octave>
      </pitch>
      <duration>4</duration>
      <voice>1</voice>
      <type>half</type>
      <stem default-y="-40.5">down</stem>
      <staff>1</staff>
    </note>
    <note default-x="185">
      <pitch>
        <step>G</step>
        <octave>5</octave>
      </pitch>
      <duration>4</duration>
      <voice>1</voice>
      <type>half</type>
      <stem default-y="-30">down</stem>
      <staff>1</staff>
    </note>
    <backup>
      <duration>8</duration>
    </backup>
    <note default-x="88">
      <pitch>
        <step>C</step>
        <octave>4</octave>
      </pitch>
      <duration>1</duration>
      <voice>2</voice>
      <type>eighth</type>
      <stem default-y="-30">down</stem>
      <staff>2</staff>
      <beam number="1">begin</beam>
    </note>
    <note default-x="112">
      <pitch>
        <step>B</step>
        <octave>3</octave>
      </pitch>
      <duration>1</duration>
      <voice>2</voice>
      <type>eighth</type>
      <stem default-y="-31">down</stem>
      <staff>2</staff>
      <beam number="1">continue</beam>
    </note>
    <note default-x="137">
      <pitch>
        <step>A</step>
        <octave>3</octave>
      </pitch>
      <duration>1</duration>
      <voice>2</voice>
      <type>eighth</type>
      <stem default-y="-31.5">down</stem>
      <staff>2</staff>
      <beam number="1">continue</beam>
    </note>
    <note default-x="161">
      <pitch>
        <step>G</step>
        <octave>3</octave>
      </pitch>
      <duration>1</duration>
      <voice>2</voice>
      <type>eighth</type>
      <stem default-y="-32.5">down</stem>
      <staff>2</staff>
      <beam number="1">end</beam>
    </note>
    <note default-x="185">
      <pitch>
        <step>F</step>
        <octave>3</octave>
      </pitch>
      <duration>1</duration>
      <voice>2</voice>
      <type>eighth</type>
      <stem default-y="-55">down</stem>
      <staff>2</staff>
      <beam number="1">begin</beam>
    </note>
    <note default-x="209">
      <pitch>
        <step>E</step>
        <octave>3</octave>
      </pitch>
      <duration>1</duration>
      <voice>2</voice>
      <type>eighth</type>
      <stem default-y="-56.5">down</stem>
      <staff>2</staff>
      <beam number="1">continue</beam>
    </note>
    <note default-x="234">
      <pitch>
        <step>D</step>
        <octave>3</octave>
      </pitch>
      <duration>1</duration>
      <voice>2</voice>
      <type>eighth</type>
      <stem default-y="-58.5">down</stem>
      <staff>2</staff>
      <beam number="1">continue</beam>
    </note>
    <note default-x="258">
      <pitch>
        <step>C</step>
        <octave>3</octave>
      </pitch>
      <duration>1</duration>
      <voice>2</voice>
      <type>eighth</type>
      <stem default-y="-60">down</stem>
      <staff>2</staff>
      <beam number="1">end</beam>
    </note>
  </measure>
<!--=======================================================-->
<measure number="2" width="208">
  <note default-x="14">
    <pitch>
      <step>D</step>
      <octave>5</octave>
    </pitch>
    <duration>4</duration>
    <voice>1</voice>
    <type>half</type>
    <stem default-y="-45">down</stem>
    <staff>1</staff>
  </note>
  <note default-x="111">
    <pitch>
      <step>D</step>
      <octave>5</octave>
    </pitch>
    <duration>4</duration>
    <voice>1</voice>
    <type>half</type>
    <stem default-y="-45">down</stem>
    <staff>1</staff>
  </note>
  <backup>
    <duration>8</duration>
  </backup>
  <note default-x="14">
    <pitch>
      <step>B</step>
      <octave>3</octave>
    </pitch>
    <duration>1</duration>
    <voice>2</voice>
    <type>eighth</type>
    <stem default-y="-40">down</stem>
    <staff>2</staff>
    <beam number="1">begin</beam>
  </note>
  <note default-x="38">
    <pitch>
      <step>A</step>
      <octave>3</octave>
    </pitch>
    <duration>1</duration>
    <voice>2</voice>
    <type>eighth</type>
    <stem default-y="-40">down</stem>
    <staff>2</staff>
    <beam number="1">continue</beam>
  </note>
  <note default-x="62">
    <pitch>
      <step>G</step>
      <octave>3</octave>
    </pitch>
    <duration>1</duration>
    <voice>2</voice>
    <type>eighth</type>
    <stem default-y="-40">down</stem>
    <staff>2</staff>
    <beam number="1">continue</beam>
  </note>
  <note default-x="86">
    <pitch>
      <step>A</step>
      <octave>3</octave>
    </pitch>
    <duration>1</duration>
    <voice>2</voice>
    <type>eighth</type>
    <stem default-y="-40">down</stem>
    <staff>2</staff>
    <beam number="1">end</beam>
  </note>
  <note default-x="111">
    <pitch>
      <step>G</step>
      <octave>3</octave>
    </pitch>
    <duration>1</duration>
    <voice>2</voice>
    <type>eighth</type>
    <stem default-y="-50">down</stem>
    <staff>2</staff>
    <beam number="1">begin</beam>
  </note>
  <note default-x="135">
    <pitch>
      <step>F</step>
      <octave>3</octave>
    </pitch>
    <duration>1</duration>
    <voice>2</voice>
    <type>eighth</type>
    <stem default-y="-50">down</stem>
    <staff>2</staff>
    <beam number="1">continue</beam>
  </note>
  <note default-x="159">
    <pitch>
      <step>E</step>
      <octave>3</octave>
    </pitch>
    <duration>1</duration>
    <voice>2</voice>
    <type>eighth</type>
    <stem default-y="-50">down</stem>
    <staff>2</staff>
    <beam number="1">continue</beam>
  </note>
  <note default-x="183">
    <pitch>
      <step>F</step>
      <octave>3</octave>
    </pitch>
    <duration>1</duration>
    <voice>2</voice>
    <type>eighth</type>
    <stem default-y="-50">down</stem>
    <staff>2</staff>
    <beam number="1">end</beam>
  </note>
</measure>
<!--=======================================================-->
<measure number="3" width="208">
  <note default-x="14">
    <pitch>
      <step>C</step>
      <octave>5</octave>
    </pitch>
    <duration>4</duration>
    <voice>1</voice>
    <type>half</type>
    <stem default-y="-50">down</stem>
    <staff>1</staff>
  </note>
  <note default-x="111">
    <pitch>
      <step>D</step>
      <octave>5</octave>
    </pitch>
    <duration>4</duration>
    <voice>1</voice>
    <type>half</type>
    <stem default-y="-45">down</stem>
    <staff>1</staff>
  </note>
  <backup>
    <duration>8</duration>
  </backup>
  <note default-x="14">
    <pitch>
      <step>E</step>
      <octave>3</octave>
    </pitch>
    <duration>1</duration>
    <voice>2</voice>
    <type>eighth</type>
    <stem default-y="-60">down</stem>
    <staff>2</staff>
    <beam number="1">begin</beam>
  </note>
  <note default-x="38">
    <pitch>
      <step>D</step>
      <octave>3</octave>
    </pitch>
    <duration>1</duration>
    <voice>2</voice>
    <type>eighth</type>
    <stem default-y="-60">down</stem>
    <staff>2</staff>
    <beam number="1">continue</beam>
  </note>
  <note default-x="62">
    <pitch>
      <step>E</step>
      <octave>3</octave>
    </pitch>
    <duration>1</duration>
    <voice>2</voice>
    <type>eighth</type>
    <stem default-y="-60">down</stem>
    <staff>2</staff>
    <beam number="1">continue</beam>
  </note>
  <note default-x="86">
    <pitch>
      <step>C</step>
      <octave>3</octave>
    </pitch>
    <duration>1</duration>
    <voice>2</voice>
    <type>eighth</type>
    <stem default-y="-60">down</stem>
    <staff>2</staff>
    <beam number="1">end</beam>
  </note>
  <note default-x="111">
    <pitch>
      <step>B</step>
      <octave>2</octave>
    </pitch>
    <duration>1</duration>
    <voice>2</voice>
    <type>eighth</type>
    <stem default-y="5">up</stem>
    <staff>2</staff>
    <beam number="1">begin</beam>
  </note>
  <note default-x="135">
    <pitch>
      <step>A</step>
      <octave>2</octave>
    </pitch>
    <duration>1</duration>
    <voice>2</voice>
    <type>eighth</type>
    <stem default-y="5">up</stem>
    <staff>2</staff>
    <beam number="1">continue</beam>
  </note>
  <note default-x="159">
    <pitch>
      <step>B</step>
      <octave>2</octave>
    </pitch>
    <duration>1</duration>
    <voice>2</voice>
    <type>eighth</type>
    <stem default-y="5">up</stem>
    <staff>2</staff>
    <beam number="1">continue</beam>
  </note>
  <note default-x="183">
    <pitch>
      <step>G</step>
      <octave>2</octave>
    </pitch>
    <duration>1</duration>
    <voice>2</voice>
    <type>eighth</type>
    <stem default-y="5">up</stem>
    <staff>2</staff>
    <beam number="1">end</beam>
  </note>
</measure>
<!--=======================================================-->
<measure number="4" width="214">
  <note default-x="14">
    <pitch>
      <step>E</step>
      <octave>5</octave>
    </pitch>
    <duration>4</duration>
    <voice>1</voice>
    <type>half</type>
    <stem default-y="-40.5">down</stem>
    <staff>1</staff>
  </note>
  <note default-x="114">
    <pitch>
      <step>C</step>
      <octave>5</octave>
    </pitch>
    <duration>4</duration>
    <voice>1</voice>
    <type>half</type>
    <stem default-y="-50">down</stem>
    <staff>1</staff>
  </note>
  <backup>
    <duration>8</duration>
  </backup>
  <note default-x="14">
    <pitch>
      <step>C</step>
      <octave>3</octave>
    </pitch>
    <duration>1</duration>
    <voice>2</voice>
    <type>eighth</type>
    <stem default-y="10">up</stem>
    <staff>2</staff>
    <beam number="1">begin</beam>
  </note>
  <note default-x="39">
    <pitch>
      <step>B</step>
      <octave>2</octave>
    </pitch>
    <duration>1</duration>
    <voice>2</voice>
    <type>eighth</type>
    <stem default-y="8.5">up</stem>
    <staff>2</staff>
    <beam number="1">continue</beam>
  </note>
  <note default-x="63">
    <pitch>
      <step>A</step>
      <octave>2</octave>
    </pitch>
    <duration>1</duration>
    <voice>2</voice>
    <type>eighth</type>
    <stem default-y="7">up</stem>
    <staff>2</staff>
    <beam number="1">continue</beam>
  </note>
  <note default-x="88">
    <pitch>
      <step>G</step>
      <octave>2</octave>
    </pitch>
    <duration>1</duration>
    <voice>2</voice>
    <type>eighth</type>
    <stem default-y="5">up</stem>
    <staff>2</staff>
    <beam number="1">end</beam>
  </note>
  <note default-x="114">
    <pitch>
      <step>F</step>
      <octave>2</octave>
    </pitch>
    <duration>1</duration>
    <voice>2</voice>
    <type>eighth</type>
    <stem default-y="-15">up</stem>
    <staff>2</staff>
    <beam number="1">begin</beam>
  </note>
  <note default-x="138">
    <pitch>
      <step>E</step>
      <octave>2</octave>
    </pitch>
    <duration>1</duration>
    <voice>2</voice>
    <type>eighth</type>
    <stem default-y="-15.5">up</stem>
    <staff>2</staff>
    <beam number="1">continue</beam>
  </note>
  <note default-x="163">
    <pitch>
      <step>D</step>
      <octave>2</octave>
    </pitch>
    <duration>1</duration>
    <voice>2</voice>
    <type>eighth</type>
    <stem default-y="-16.5">up</stem>
    <staff>2</staff>
    <beam number="1">continue</beam>
  </note>
  <note default-x="188">
    <pitch>
      <step>C</step>
      <octave>2</octave>
    </pitch>
    <duration>1</duration>
    <voice>2</voice>
    <type>eighth</type>
    <stem default-y="-17.5">up</stem>
    <staff>2</staff>
    <beam number="1">end</beam>
  </note>
</measure>
<!--=======================================================-->
<measure number="5" width="224">
  <print new-system="yes">
    <system-layout>
      <system-distance>114</system-distance>
    </system-layout>
  </print>
  <note default-x="53">
    <pitch>
      <step>E</step>
      <octave>5</octave>
    </pitch>
    <duration>4</duration>
    <voice>1</voice>
    <type>half</type>
    <stem default-y="-40">down</stem>
    <staff>1</staff>
  </note>
  <note default-x="139">
    <pitch>
      <step>G</step>
      <octave>5</octave>
    </pitch>
    <duration>4</duration>
    <voice>1</voice>
    <type>half</type>
    <stem default-y="-30">down</stem>
    <staff>1</staff>
  </note>
  <backup>
    <duration>8</duration>
  </backup>
  <note default-x="53">
    <pitch>
      <step>C</step>
      <octave>3</octave>
    </pitch>
    <duration>1</duration>
    <voice>2</voice>
    <type>eighth</type>
    <stem default-y="-60">down</stem>
    <staff>2</staff>
    <beam number="1">begin</beam>
  </note>
  <note default-x="74">
    <pitch>
      <step>D</step>
      <octave>3</octave>
    </pitch>
    <duration>1</duration>
    <voice>2</voice>
    <type>eighth</type>
    <stem default-y="-58">down</stem>
    <staff>2</staff>
    <beam number="1">continue</beam>
  </note>
  <note default-x="96">
    <pitch>
      <step>E</step>
      <octave>3</octave>
    </pitch>
    <duration>1</duration>
    <voice>2</voice>
    <type>eighth</type>
    <stem default-y="-56.5">down</stem>
    <staff>2</staff>
    <beam number="1">continue</beam>
  </note>
  <note default-x="117">
    <pitch>
      <step>F</step>
      <octave>3</octave>
    </pitch>
    <duration>1</duration>
    <voice>2</voice>
    <type>eighth</type>
    <stem default-y="-55">down</stem>
    <staff>2</staff>
    <beam number="1">end</beam>
  </note>
  <note default-x="138">
    <pitch>
      <step>G</step>
      <octave>3</octave>
    </pitch>
    <duration>1</duration>
    <voice>2</voice>
    <type>eighth</type>
    <stem default-y="-35">down</stem>
    <staff>2</staff>
    <beam number="1">begin</beam>
  </note>
  <note default-x="160">
    <pitch>
      <step>A</step>
      <octave>3</octave>
    </pitch>
    <duration>1</duration>
    <voice>2</voice>
    <type>eighth</type>
    <stem default-y="-34">down</stem>
    <staff>2</staff>
    <beam number="1">continue</beam>
  </note>
  <note default-x="181">
    <pitch>
      <step>B</step>
      <octave>3</octave>
    </pitch>
    <duration>1</duration>
    <voice>2</voice>
    <type>eighth</type>
    <stem default-y="-33.5">down</stem>
    <staff>2</staff>
    <beam number="1">continue</beam>
  </note>
  <note default-x="202">
    <pitch>
      <step>C</step>
      <octave>4</octave>
    </pitch>
    <duration>1</duration>
    <voice>2</voice>
    <type>eighth</type>
    <stem default-y="-32.5">down</stem>
    <staff>2</staff>
    <beam number="1">end</beam>
  </note>
</measure>
<!--=======================================================-->
<measure number="6" width="185">
  <note default-x="14">
    <pitch>
      <step>D</step>
      <octave>5</octave>
    </pitch>
    <duration>4</duration>
    <voice>1</voice>
    <type>half</type>
    <stem default-y="-45">down</stem>
    <staff>1</staff>
  </note>
  <note default-x="99">
    <pitch>
      <step>D</step>
      <octave>5</octave>
    </pitch>
    <duration>4</duration>
    <voice>1</voice>
    <type>half</type>
    <stem default-y="-45">down</stem>
    <staff>1</staff>
  </note>
  <backup>
    <duration>8</duration>
  </backup>
  <note default-x="14">
    <pitch>
      <step>B</step>
      <octave>3</octave>
    </pitch>
    <duration>1</duration>
    <voice>2</voice>
    <type>eighth</type>
    <stem default-y="-40">down</stem>
    <staff>2</staff>
    <beam number="1">begin</beam>
  </note>
  <note default-x="35">
    <pitch>
      <step>A</step>
      <octave>3</octave>
    </pitch>
    <duration>1</duration>
    <voice>2</voice>
    <type>eighth</type>
    <stem default-y="-40">down</stem>
    <staff>2</staff>
    <beam number="1">continue</beam>
  </note>
  <note default-x="57">
    <pitch>
      <step>G</step>
      <octave>3</octave>
    </pitch>
    <duration>1</duration>
    <voice>2</voice>
    <type>eighth</type>
    <stem default-y="-40">down</stem>
    <staff>2</staff>
    <beam number="1">continue</beam>
  </note>
  <note default-x="78">
    <pitch>
      <step>A</step>
      <octave>3</octave>
    </pitch>
    <duration>1</duration>
    <voice>2</voice>
    <type>eighth</type>
    <stem default-y="-40">down</stem>
    <staff>2</staff>
    <beam number="1">end</beam>
  </note>
  <note default-x="99">
    <pitch>
      <step>G</step>
      <octave>3</octave>
    </pitch>
    <duration>1</duration>
    <voice>2</voice>
    <type>eighth</type>
    <stem default-y="-50">down</stem>
    <staff>2</staff>
    <beam number="1">begin</beam>
  </note>
  <note default-x="120">
    <pitch>
      <step>F</step>
      <octave>3</octave>
    </pitch>
    <duration>1</duration>
    <voice>2</voice>
    <type>eighth</type>
    <stem default-y="-50">down</stem>
    <staff>2</staff>
    <beam number="1">continue</beam>
  </note>
  <note default-x="142">
    <pitch>
      <step>E</step>
      <octave>3</octave>
    </pitch>
    <duration>1</duration>
    <voice>2</voice>
    <type>eighth</type>
    <stem default-y="-50">down</stem>
    <staff>2</staff>
    <beam number="1">continue</beam>
  </note>
  <note default-x="163">
    <pitch>
      <step>F</step>
      <octave>3</octave>
    </pitch>
    <duration>1</duration>
    <voice>2</voice>
    <type>eighth</type>
    <stem default-y="-50">down</stem>
    <staff>2</staff>
    <beam number="1">end</beam>
  </note>
</measure>
<!--=======================================================-->
<measure number="7" width="185">
  <note default-x="14">
    <pitch>
      <step>C</step>
      <octave>5</octave>
    </pitch>
    <duration>4</duration>
    <voice>1</voice>
    <type>half</type>
    <stem default-y="-50">down</stem>
    <staff>1</staff>
  </note>
  <note default-x="99">
    <pitch>
      <step>D</step>
      <octave>5</octave>
    </pitch>
    <duration>4</duration>
    <voice>1</voice>
    <type>half</type>
    <stem default-y="-45">down</stem>
    <staff>1</staff>
  </note>
  <backup>
    <duration>8</duration>
  </backup>
  <note default-x="14">
    <pitch>
      <step>E</step>
      <octave>3</octave>
    </pitch>
    <duration>1</duration>
    <voice>2</voice>
    <type>eighth</type>
    <stem default-y="-60">down</stem>
    <staff>2</staff>
    <beam number="1">begin</beam>
  </note>
  <note default-x="35">
    <pitch>
      <step>D</step>
      <octave>3</octave>
    </pitch>
    <duration>1</duration>
    <voice>2</voice>
    <type>eighth</type>
    <stem default-y="-60">down</stem>
    <staff>2</staff>
    <beam number="1">continue</beam>
  </note>
  <note default-x="57">
    <pitch>
      <step>E</step>
      <octave>3</octave>
    </pitch>
    <duration>1</duration>
    <voice>2</voice>
    <type>eighth</type>
    <stem default-y="-60">down</stem>
    <staff>2</staff>
    <beam number="1">continue</beam>
  </note>
  <note default-x="78">
    <pitch>
      <step>C</step>
      <octave>3</octave>
    </pitch>
    <duration>1</duration>
    <voice>2</voice>
    <type>eighth</type>
    <stem default-y="-60">down</stem>
    <staff>2</staff>
    <beam number="1">end</beam>
  </note>
  <note default-x="99">
    <pitch>
      <step>B</step>
      <octave>2</octave>
    </pitch>
    <duration>1</duration>
    <voice>2</voice>
    <type>eighth</type>
    <stem default-y="5">up</stem>
    <staff>2</staff>
    <beam number="1">begin</beam>
  </note>
  <note default-x="120">
    <pitch>
      <step>A</step>
      <octave>2</octave>
    </pitch>
    <duration>1</duration>
    <voice>2</voice>
    <type>eighth</type>
    <stem default-y="5">up</stem>
    <staff>2</staff>
    <beam number="1">continue</beam>
  </note>
  <note default-x="142">
    <pitch>
      <step>B</step>
      <octave>2</octave>
    </pitch>
    <duration>1</duration>
    <voice>2</voice>
    <type>eighth</type>
    <stem default-y="5">up</stem>
    <staff>2</staff>
    <beam number="1">continue</beam>
  </note>
  <note default-x="163">
    <pitch>
      <step>G</step>
      <octave>2</octave>
    </pitch>
    <duration>1</duration>
    <voice>2</voice>
    <type>eighth</type>
    <stem default-y="5">up</stem>
    <staff>2</staff>
    <beam number="1">end</beam>
  </note>
</measure>
<!--=======================================================-->
<measure number="8" width="183">
  <note default-x="13">
    <pitch>
      <step>C</step>
      <octave>5</octave>
    </pitch>
    <duration>8</duration>
    <voice>1</voice>
    <type>whole</type>
    <staff>1</staff>
  </note>
  <backup>
    <duration>8</duration>
  </backup>
  <note default-x="13">
    <pitch>
      <step>C</step>
      <octave>3</octave>
    </pitch>
    <duration>1</duration>
    <voice>2</voice>
    <type>eighth</type>
    <stem default-y="10">up</stem>
    <staff>2</staff>
    <beam number="1">begin</beam>
  </note>
  <note default-x="34">
    <pitch>
      <step>G</step>
      <octave>2</octave>
    </pitch>
    <duration>1</duration>
    <voice>2</voice>
    <type>eighth</type>
    <stem default-y="8.5">up</stem>
    <staff>2</staff>
    <beam number="1">continue</beam>
  </note>
  <note default-x="56">
    <pitch>
      <step>E</step>
      <octave>2</octave>
    </pitch>
    <duration>1</duration>
    <voice>2</voice>
    <type>eighth</type>
    <stem default-y="6.5">up</stem>
    <staff>2</staff>
    <beam number="1">continue</beam>
  </note>
  <note default-x="77">
    <pitch>
      <step>G</step>
      <octave>2</octave>
    </pitch>
    <duration>1</duration>
    <voice>2</voice>
    <type>eighth</type>
    <stem default-y="5">up</stem>
    <staff>2</staff>
    <beam number="1">end</beam>
  </note>
  <note default-x="99">
    <pitch>
      <step>C</step>
      <octave>2</octave>
    </pitch>
    <duration>2</duration>
    <voice>2</voice>
    <type>quarter</type>
    <stem default-y="-19">up</stem>
    <staff>2</staff>
  </note>
  <note default-x="133">
    <rest/>
    <duration>2</duration>
    <voice>2</voice>
    <type>quarter</type>
    <staff>2</staff>
  </note>
  <barline location="right">
    <bar-style>light-heavy</bar-style>
    <repeat direction="backward"/>
  </barline>
</measure>
<!--=======================================================-->
<measure number="9" width="206">
  <barline location="left">
    <bar-style>heavy-light</bar-style>
    <repeat direction="forward"/>
  </barline>
  <note default-x="32">
    <pitch>
      <step>D</step>
      <octave>5</octave>
    </pitch>
    <duration>4</duration>
    <voice>1</voice>
    <type>half</type>
    <stem default-y="-45">down</stem>
    <staff>1</staff>
  </note>
  <note default-x="118">
    <pitch>
      <step>D</step>
      <octave>5</octave>
    </pitch>
    <duration>4</duration>
    <voice>1</voice>
    <type>half</type>
    <stem default-y="-45">down</stem>
    <staff>1</staff>
  </note>
  <backup>
    <duration>8</duration>
  </backup>
  <note default-x="32">
    <pitch>
      <step>B</step>
      <octave>3</octave>
    </pitch>
    <duration>1</duration>
    <voice>2</voice>
    <type>eighth</type>
    <stem default-y="-40">down</stem>
    <staff>2</staff>
    <beam number="1">begin</beam>
  </note>
  <note default-x="53">
    <pitch>
      <step>A</step>
      <octave>3</octave>
    </pitch>
    <duration>1</duration>
    <voice>2</voice>
    <type>eighth</type>
    <stem default-y="-40">down</stem>
    <staff>2</staff>
    <beam number="1">continue</beam>
  </note>
  <note default-x="75">
    <pitch>
      <step>G</step>
      <octave>3</octave>
    </pitch>
    <duration>1</duration>
    <voice>2</voice>
    <type>eighth</type>
    <stem default-y="-40">down</stem>
    <staff>2</staff>
    <beam number="1">continue</beam>
  </note>
  <note default-x="97">
    <pitch>
      <step>A</step>
      <octave>3</octave>
    </pitch>
    <duration>1</duration>
    <voice>2</voice>
    <type>eighth</type>
    <stem default-y="-40">down</stem>
    <staff>2</staff>
    <beam number="1">end</beam>
  </note>
  <note default-x="118">
    <pitch>
      <step>B</step>
      <octave>3</octave>
    </pitch>
    <duration>1</duration>
    <voice>2</voice>
    <type>eighth</type>
    <stem default-y="-30">down</stem>
    <staff>2</staff>
    <beam number="1">begin</beam>
  </note>
  <note default-x="140">
    <pitch>
      <step>A</step>
      <octave>3</octave>
    </pitch>
    <duration>1</duration>
    <voice>2</voice>
    <type>eighth</type>
    <stem default-y="-30.5">down</stem>
    <staff>2</staff>
    <beam number="1">continue</beam>
  </note>
  <note default-x="161">
    <pitch>
      <step>B</step>
      <octave>3</octave>
    </pitch>
    <duration>1</duration>
    <voice>2</voice>
    <type>eighth</type>
    <stem default-y="-31.5">down</stem>
    <staff>2</staff>
    <beam number="1">continue</beam>
  </note>
  <note default-x="183">
    <pitch>
      <step>G</step>
      <octave>3</octave>
    </pitch>
    <duration>1</duration>
    <voice>2</voice>
    <type>eighth</type>
    <stem default-y="-32.5">down</stem>
    <staff>2</staff>
    <beam number="1">end</beam>
  </note>
</measure>
<!--=======================================================-->
<measure number="10" width="274">
  <print new-system="yes">
    <system-layout>
      <system-distance>114</system-distance>
    </system-layout>
  </print>
  <note default-x="56">
    <pitch>
      <step>E</step>
      <octave>5</octave>
    </pitch>
    <duration>4</duration>
    <voice>1</voice>
    <type>half</type>
    <stem default-y="-40">down</stem>
    <staff>1</staff>
  </note>
  <note default-x="164">
    <pitch>
      <step>E</step>
      <octave>5</octave>
    </pitch>
    <duration>4</duration>
    <voice>1</voice>
    <type>half</type>
    <stem default-y="-40">down</stem>
    <staff>1</staff>
  </note>
  <backup>
    <duration>8</duration>
  </backup>
  <note default-x="55">
    <pitch>
      <step>C</step>
      <octave>4</octave>
    </pitch>
    <duration>1</duration>
    <voice>2</voice>
    <type>eighth</type>
    <stem default-y="-40">down</stem>
    <staff>2</staff>
    <beam number="1">begin</beam>
  </note>
  <note default-x="82">
    <pitch>
      <step>G</step>
      <octave>3</octave>
    </pitch>
    <duration>1</duration>
    <voice>2</voice>
    <type>eighth</type>
    <stem default-y="-40">down</stem>
    <staff>2</staff>
    <beam number="1">continue</beam>
  </note>
  <note default-x="110">
    <pitch>
      <step>A</step>
      <octave>3</octave>
    </pitch>
    <duration>1</duration>
    <voice>2</voice>
    <type>eighth</type>
    <stem default-y="-40">down</stem>
    <staff>2</staff>
    <beam number="1">continue</beam>
  </note>
  <note default-x="137">
    <pitch>
      <step>B</step>
      <octave>3</octave>
    </pitch>
    <duration>1</duration>
    <voice>2</voice>
    <type>eighth</type>
    <stem default-y="-40">down</stem>
    <staff>2</staff>
    <beam number="1">end</beam>
  </note>
  <note default-x="164">
    <pitch>
      <step>C</step>
      <octave>4</octave>
    </pitch>
    <duration>1</duration>
    <voice>2</voice>
    <type>eighth</type>
    <stem default-y="-30">down</stem>
    <staff>2</staff>
    <beam number="1">begin</beam>
  </note>
  <note default-x="192">
    <pitch>
      <step>B</step>
      <octave>3</octave>
    </pitch>
    <duration>1</duration>
    <voice>2</voice>
    <type>eighth</type>
    <stem default-y="-31">down</stem>
    <staff>2</staff>
    <beam number="1">continue</beam>
  </note>
  <note default-x="219">
    <pitch>
      <step>C</step>
      <octave>4</octave>
    </pitch>
    <duration>1</duration>
    <voice>2</voice>
    <type>eighth</type>
    <stem default-y="-31.5">down</stem>
    <staff>2</staff>
    <beam number="1">continue</beam>
  </note>
  <note default-x="246">
    <pitch>
      <step>G</step>
      <octave>3</octave>
    </pitch>
    <duration>1</duration>
    <voice>2</voice>
    <type>eighth</type>
    <stem default-y="-32.5">down</stem>
    <staff>2</staff>
    <beam number="1">end</beam>
  </note>
</measure>
<!--=======================================================-->
<measure number="11" width="240">
  <note default-x="16">
    <pitch>
      <step>F</step>
      <octave>5</octave>
    </pitch>
    <duration>4</duration>
    <voice>1</voice>
    <type>half</type>
    <stem default-y="-35">down</stem>
    <staff>1</staff>
  </note>
  <note default-x="128">
    <pitch>
      <step>E</step>
      <octave>5</octave>
    </pitch>
    <duration>4</duration>
    <voice>1</voice>
    <type>half</type>
    <stem default-y="-40">down</stem>
    <staff>1</staff>
  </note>
  <backup>
    <duration>8</duration>
  </backup>
  <note default-x="16">
    <pitch>
      <step>D</step>
      <octave>4</octave>
    </pitch>
    <duration>1</duration>
    <voice>2</voice>
    <type>eighth</type>
    <stem default-y="-30">down</stem>
    <staff>2</staff>
    <beam number="1">begin</beam>
  </note>
  <note default-x="44">
    <pitch>
      <step>C</step>
      <octave>4</octave>
    </pitch>
    <duration>1</duration>
    <voice>2</voice>
    <type>eighth</type>
    <stem default-y="-31">down</stem>
    <staff>2</staff>
    <beam number="1">continue</beam>
  </note>
  <note default-x="72">
    <pitch>
      <step>D</step>
      <octave>4</octave>
    </pitch>
    <duration>1</duration>
    <voice>2</voice>
    <type>eighth</type>
    <stem default-y="-31.5">down</stem>
    <staff>2</staff>
    <beam number="1">continue</beam>
  </note>
  <note default-x="100">
    <pitch>
      <step>G</step>
      <octave>3</octave>
    </pitch>
    <duration>1</duration>
    <voice>2</voice>
    <type>eighth</type>
    <stem default-y="-32.5">down</stem>
    <staff>2</staff>
    <beam number="1">end</beam>
  </note>
  <note default-x="128">
    <pitch>
      <step>C</step>
      <octave>4</octave>
    </pitch>
    <duration>1</duration>
    <voice>2</voice>
    <type>eighth</type>
    <stem default-y="-30">down</stem>
    <staff>2</staff>
    <beam number="1">begin</beam>
  </note>
  <note default-x="156">
    <pitch>
      <step>B</step>
      <octave>3</octave>
    </pitch>
    <duration>1</duration>
    <voice>2</voice>
    <type>eighth</type>
    <stem default-y="-31">down</stem>
    <staff>2</staff>
    <beam number="1">continue</beam>
  </note>
  <note default-x="184">
    <pitch>
      <step>C</step>
      <octave>4</octave>
    </pitch>
    <duration>1</duration>
    <voice>2</voice>
    <type>eighth</type>
    <stem default-y="-31.5">down</stem>
    <staff>2</staff>
    <beam number="1">continue</beam>
  </note>
  <note default-x="211">
    <pitch>
      <step>G</step>
      <octave>3</octave>
    </pitch>
    <duration>1</duration>
    <voice>2</voice>
    <type>eighth</type>
    <stem default-y="-32.5">down</stem>
    <staff>2</staff>
    <beam number="1">end</beam>
  </note>
</measure>
<!--=======================================================-->
<measure number="12" width="237">
  <note default-x="14">
    <pitch>
      <step>D</step>
      <octave>5</octave>
    </pitch>
    <duration>4</duration>
    <voice>1</voice>
    <type>half</type>
    <stem default-y="-45">down</stem>
    <staff>1</staff>
  </note>
  <note default-x="125">
    <pitch>
      <step>G</step>
      <octave>5</octave>
    </pitch>
    <duration>4</duration>
    <voice>1</voice>
    <type>half</type>
    <stem default-y="-30.5">down</stem>
    <staff>1</staff>
  </note>
  <backup>
    <duration>8</duration>
  </backup>
  <note default-x="14">
    <pitch>
      <step>B</step>
      <octave>3</octave>
    </pitch>
    <duration>1</duration>
    <voice>2</voice>
    <type>eighth</type>
    <stem default-y="-40">down</stem>
    <staff>2</staff>
    <beam number="1">begin</beam>
  </note>
  <note default-x="42">
    <pitch>
      <step>A</step>
      <octave>3</octave>
    </pitch>
    <duration>1</duration>
    <voice>2</voice>
    <type>eighth</type>
    <stem default-y="-40">down</stem>
    <staff>2</staff>
    <beam number="1">continue</beam>
  </note>
  <note default-x="69">
    <pitch>
      <step>G</step>
      <octave>3</octave>
    </pitch>
    <duration>1</duration>
    <voice>2</voice>
    <type>eighth</type>
    <stem default-y="-40">down</stem>
    <staff>2</staff>
    <beam number="1">continue</beam>
  </note>
  <note default-x="97">
    <pitch>
      <step>A</step>
      <octave>3</octave>
    </pitch>
    <duration>1</duration>
    <voice>2</voice>
    <type>eighth</type>
    <stem default-y="-40">down</stem>
    <staff>2</staff>
    <beam number="1">end</beam>
  </note>
  <note default-x="125">
    <pitch>
      <step>B</step>
      <octave>3</octave>
    </pitch>
    <duration>1</duration>
    <voice>2</voice>
    <type>eighth</type>
    <stem default-y="-25">down</stem>
    <staff>2</staff>
    <beam number="1">begin</beam>
  </note>
  <note default-x="153">
    <pitch>
      <step>C</step>
      <octave>4</octave>
    </pitch>
    <duration>1</duration>
    <voice>2</voice>
    <type>eighth</type>
    <stem default-y="-24">down</stem>
    <staff>2</staff>
    <beam number="1">continue</beam>
  </note>
  <note default-x="181">
    <pitch>
      <step>D</step>
      <octave>4</octave>
    </pitch>
    <duration>1</duration>
    <voice>2</voice>
    <type>eighth</type>
    <stem default-y="-23">down</stem>
    <staff>2</staff>
    <beam number="1">continue</beam>
  </note>
  <note default-x="208">
    <pitch>
      <step>C</step>
      <octave>4</octave>
    </pitch>
    <duration>1</duration>
    <voice>2</voice>
    <type>eighth</type>
    <stem default-y="-22.5">down</stem>
    <staff>2</staff>
    <beam number="1">end</beam>
  </note>
</measure>
<!--=======================================================-->
<measure number="13" width="233">
  <note default-x="14">
    <pitch>
      <step>D</step>
      <octave>5</octave>
    </pitch>
    <duration>4</duration>
    <voice>1</voice>
    <type>half</type>
    <stem default-y="-45">down</stem>
    <staff>1</staff>
  </note>
  <note default-x="123">
    <pitch>
      <step>D</step>
      <octave>5</octave>
    </pitch>
    <duration>4</duration>
    <voice>1</voice>
    <type>half</type>
    <stem default-y="-45">down</stem>
    <staff>1</staff>
  </note>
  <backup>
    <duration>8</duration>
  </backup>
  <note default-x="14">
    <pitch>
      <step>B</step>
      <octave>3</octave>
    </pitch>
    <duration>1</duration>
    <voice>2</voice>
    <type>eighth</type>
    <stem default-y="-40">down</stem>
    <staff>2</staff>
    <beam number="1">begin</beam>
  </note>
  <note default-x="41">
    <pitch>
      <step>A</step>
      <octave>3</octave>
    </pitch>
    <duration>1</duration>
    <voice>2</voice>
    <type>eighth</type>
    <stem default-y="-40">down</stem>
    <staff>2</staff>
    <beam number="1">continue</beam>
  </note>
  <note default-x="68">
    <pitch>
      <step>G</step>
      <octave>3</octave>
    </pitch>
    <duration>1</duration>
    <voice>2</voice>
    <type>eighth</type>
    <stem default-y="-40">down</stem>
    <staff>2</staff>
    <beam number="1">continue</beam>
  </note>
  <note default-x="96">
    <pitch>
      <step>A</step>
      <octave>3</octave>
    </pitch>
    <duration>1</duration>
    <voice>2</voice>
    <type>eighth</type>
    <stem default-y="-40">down</stem>
    <staff>2</staff>
    <beam number="1">end</beam>
  </note>
  <note default-x="123">
    <pitch>
      <step>B</step>
      <octave>3</octave>
    </pitch>
    <duration>1</duration>
    <voice>2</voice>
    <type>eighth</type>
    <stem default-y="-30">down</stem>
    <staff>2</staff>
    <beam number="1">begin</beam>
  </note>
  <note default-x="150">
    <pitch>
      <step>A</step>
      <octave>3</octave>
    </pitch>
    <duration>1</duration>
    <voice>2</voice>
    <type>eighth</type>
    <stem default-y="-31">down</stem>
    <staff>2</staff>
    <beam number="1">continue</beam>
  </note>
  <note default-x="177">
    <pitch>
      <step>B</step>
      <octave>3</octave>
    </pitch>
    <duration>1</duration>
    <voice>2</voice>
    <type>eighth</type>
    <stem default-y="-31.5">down</stem>
    <staff>2</staff>
    <beam number="1">continue</beam>
  </note>
  <note default-x="204">
    <pitch>
      <step>G</step>
      <octave>3</octave>
    </pitch>
    <duration>1</duration>
    <voice>2</voice>
    <type>eighth</type>
    <stem default-y="-32.5">down</stem>
    <staff>2</staff>
    <beam number="1">end</beam>
  </note>
</measure>
<!--=======================================================-->
<measure number="14" width="275">
  <print new-system="yes">
    <system-layout>
      <system-distance>114</system-distance>
    </system-layout>
  </print>
  <note default-x="56">
    <pitch>
      <step>E</step>
      <octave>5</octave>
    </pitch>
    <duration>4</duration>
    <voice>1</voice>
    <type>half</type>
    <stem default-y="-40.5">down</stem>
    <staff>1</staff>
  </note>
  <note default-x="165">
    <pitch>
      <step>E</step>
      <octave>5</octave>
    </pitch>
    <duration>4</duration>
    <voice>1</voice>
    <type>half</type>
    <stem default-y="-40.5">down</stem>
    <staff>1</staff>
  </note>
  <backup>
    <duration>8</duration>
  </backup>
  <note default-x="55">
    <pitch>
      <step>C</step>
      <octave>4</octave>
    </pitch>
    <duration>1</duration>
    <voice>2</voice>
    <type>eighth</type>
    <stem default-y="-40">down</stem>
    <staff>2</staff>
    <beam number="1">begin</beam>
  </note>
  <note default-x="83">
    <pitch>
      <step>G</step>
      <octave>3</octave>
    </pitch>
    <duration>1</duration>
    <voice>2</voice>
    <type>eighth</type>
    <stem default-y="-40">down</stem>
    <staff>2</staff>
    <beam number="1">continue</beam>
  </note>
  <note default-x="110">
    <pitch>
      <step>A</step>
      <octave>3</octave>
    </pitch>
    <duration>1</duration>
    <voice>2</voice>
    <type>eighth</type>
    <stem default-y="-40">down</stem>
    <staff>2</staff>
    <beam number="1">continue</beam>
  </note>
  <note default-x="138">
    <pitch>
      <step>B</step>
      <octave>3</octave>
    </pitch>
    <duration>1</duration>
    <voice>2</voice>
    <type>eighth</type>
    <stem default-y="-40">down</stem>
    <staff>2</staff>
    <beam number="1">end</beam>
  </note>
  <note default-x="165">
    <pitch>
      <step>C</step>
      <octave>4</octave>
    </pitch>
    <duration>1</duration>
    <voice>2</voice>
    <type>eighth</type>
    <stem default-y="-30">down</stem>
    <staff>2</staff>
    <beam number="1">begin</beam>
  </note>
  <note default-x="192">
    <pitch>
      <step>B</step>
      <octave>3</octave>
    </pitch>
    <duration>1</duration>
    <voice>2</voice>
    <type>eighth</type>
    <stem default-y="-31">down</stem>
    <staff>2</staff>
    <beam number="1">continue</beam>
  </note>
  <note default-x="220">
    <pitch>
      <step>C</step>
      <octave>4</octave>
    </pitch>
    <duration>1</duration>
    <voice>2</voice>
    <type>eighth</type>
    <stem default-y="-32">down</stem>
    <staff>2</staff>
    <beam number="1">continue</beam>
  </note>
  <note default-x="247">
    <pitch>
      <step>G</step>
      <octave>3</octave>
    </pitch>
    <duration>1</duration>
    <voice>2</voice>
    <type>eighth</type>
    <stem default-y="-32">down</stem>
    <staff>2</staff>
    <beam number="1">end</beam>
  </note>
</measure>
<!--=======================================================-->
<measure number="15" width="241">
  <note default-x="16">
    <pitch>
      <step>F</step>
      <octave>5</octave>
    </pitch>
    <duration>4</duration>
    <voice>1</voice>
    <type>half</type>
    <stem default-y="-35">down</stem>
    <staff>1</staff>
  </note>
  <note default-x="129">
    <pitch>
      <step>E</step>
      <octave>5</octave>
    </pitch>
    <duration>4</duration>
    <voice>1</voice>
    <type>half</type>
    <stem default-y="-40.5">down</stem>
    <staff>1</staff>
  </note>
  <backup>
    <duration>8</duration>
  </backup>
  <note default-x="16">
    <pitch>
      <step>D</step>
      <octave>4</octave>
    </pitch>
    <duration>1</duration>
    <voice>2</voice>
    <type>eighth</type>
    <stem default-y="-30">down</stem>
    <staff>2</staff>
    <beam number="1">begin</beam>
  </note>
  <note default-x="44">
    <pitch>
      <step>C</step>
      <octave>4</octave>
    </pitch>
    <duration>1</duration>
    <voice>2</voice>
    <type>eighth</type>
    <stem default-y="-31">down</stem>
    <staff>2</staff>
    <beam number="1">continue</beam>
  </note>
  <note default-x="73">
    <pitch>
      <step>D</step>
      <octave>4</octave>
    </pitch>
    <duration>1</duration>
    <voice>2</voice>
    <type>eighth</type>
    <stem default-y="-32">down</stem>
    <staff>2</staff>
    <beam number="1">continue</beam>
  </note>
  <note default-x="100">
    <pitch>
      <step>G</step>
      <octave>3</octave>
    </pitch>
    <duration>1</duration>
    <voice>2</voice>
    <type>eighth</type>
    <stem default-y="-32">down</stem>
    <staff>2</staff>
    <beam number="1">end</beam>
  </note>
  <note default-x="129">
    <pitch>
      <step>C</step>
      <octave>4</octave>
    </pitch>
    <duration>1</duration>
    <voice>2</voice>
    <type>eighth</type>
    <stem default-y="-30">down</stem>
    <staff>2</staff>
    <beam number="1">begin</beam>
  </note>
  <note default-x="156">
    <pitch>
      <step>B</step>
      <octave>3</octave>
    </pitch>
    <duration>1</duration>
    <voice>2</voice>
    <type>eighth</type>
    <stem default-y="-31">down</stem>
    <staff>2</staff>
    <beam number="1">continue</beam>
  </note>
  <note default-x="185">
    <pitch>
      <step>C</step>
      <octave>4</octave>
    </pitch>
    <duration>1</duration>
    <voice>2</voice>
    <type>eighth</type>
    <stem default-y="-32">down</stem>
    <staff>2</staff>
    <beam number="1">continue</beam>
  </note>
  <note default-x="213">
    <pitch>
      <step>G</step>
      <octave>3</octave>
    </pitch>
    <duration>1</duration>
    <voice>2</voice>
    <type>eighth</type>
    <stem default-y="-32">down</stem>
    <staff>2</staff>
    <beam number="1">end</beam>
  </note>
</measure>
<!--=======================================================-->
<measure number="16" width="233">
  <note default-x="13">
    <pitch>
      <step>D</step>
      <octave>5</octave>
    </pitch>
    <duration>8</duration>
    <voice>1</voice>
    <type>whole</type>
    <staff>1</staff>
  </note>
  <backup>
    <duration>8</duration>
  </backup>
  <note default-x="13">
    <pitch>
      <step>B</step>
      <octave>3</octave>
    </pitch>
    <duration>1</duration>
    <voice>2</voice>
    <type>eighth</type>
    <stem default-y="-40">down</stem>
    <staff>2</staff>
    <beam number="1">begin</beam>
  </note>
  <note default-x="41">
    <pitch>
      <step>A</step>
      <octave>3</octave>
    </pitch>
    <duration>1</duration>
    <voice>2</voice>
    <type>eighth</type>
    <stem default-y="-40">down</stem>
    <staff>2</staff>
    <beam number="1">continue</beam>
  </note>
  <note default-x="68">
    <pitch>
      <step>G</step>
      <octave>3</octave>
    </pitch>
    <duration>1</duration>
    <voice>2</voice>
    <type>eighth</type>
    <stem default-y="-40">down</stem>
    <staff>2</staff>
    <beam number="1">continue</beam>
  </note>
  <note default-x="96">
    <pitch>
      <step>A</step>
      <octave>3</octave>
    </pitch>
    <duration>1</duration>
    <voice>2</voice>
    <type>eighth</type>
    <stem default-y="-40">down</stem>
    <staff>2</staff>
    <beam number="1">end</beam>
  </note>
  <note default-x="122">
    <pitch>
      <step>G</step>
      <octave>3</octave>
    </pitch>
    <duration>1</duration>
    <voice>2</voice>
    <type>eighth</type>
    <stem default-y="-50">down</stem>
    <staff>2</staff>
    <beam number="1">begin</beam>
  </note>
  <note default-x="150">
    <pitch>
      <step>F</step>
      <octave>3</octave>
    </pitch>
    <duration>1</duration>
    <voice>2</voice>
    <type>eighth</type>
    <stem default-y="-52">down</stem>
    <staff>2</staff>
    <beam number="1">continue</beam>
  </note>
  <note default-x="177">
    <pitch>
      <step>E</step>
      <octave>3</octave>
    </pitch>
    <duration>1</duration>
    <voice>2</voice>
    <type>eighth</type>
    <stem default-y="-53">down</stem>
    <staff>2</staff>
    <beam number="1">continue</beam>
  </note>
  <note default-x="204">
    <pitch>
      <step>D</step>
      <octave>3</octave>
    </pitch>
    <duration>1</duration>
    <voice>2</voice>
    <type>eighth</type>
    <stem default-y="-55">down</stem>
    <staff>2</staff>
    <beam number="1">end</beam>
  </note>
</measure>
<!--=======================================================-->
<measure number="17" width="234">
  <note default-x="14">
    <pitch>
      <step>E</step>
      <octave>5</octave>
    </pitch>
    <duration>4</duration>
    <voice>1</voice>
    <type>half</type>
    <stem default-y="-40.5">down</stem>
    <staff>1</staff>
  </note>
  <note default-x="124">
    <pitch>
      <step>G</step>
      <octave>5</octave>
    </pitch>
    <duration>4</duration>
    <voice>1</voice>
    <type>half</type>
    <stem default-y="-30">down</stem>
    <staff>1</staff>
  </note>
  <backup>
    <duration>8</duration>
  </backup>
  <note default-x="14">
    <pitch>
      <step>C</step>
      <octave>3</octave>
    </pitch>
    <duration>1</duration>
    <voice>2</voice>
    <type>eighth</type>
    <stem default-y="-60">down</stem>
    <staff>2</staff>
    <beam number="1">begin</beam>
  </note>
  <note default-x="41">
    <pitch>
      <step>D</step>
      <octave>3</octave>
    </pitch>
    <duration>1</duration>
    <voice>2</voice>
    <type>eighth</type>
    <stem default-y="-58">down</stem>
    <staff>2</staff>
    <beam number="1">continue</beam>
  </note>
  <note default-x="69">
    <pitch>
      <step>E</step>
      <octave>3</octave>
    </pitch>
    <duration>1</duration>
    <voice>2</voice>
    <type>eighth</type>
    <stem default-y="-56.5">down</stem>
    <staff>2</staff>
    <beam number="1">continue</beam>
  </note>
  <note default-x="96">
    <pitch>
      <step>F</step>
      <octave>3</octave>
    </pitch>
    <duration>1</duration>
    <voice>2</voice>
    <type>eighth</type>
    <stem default-y="-55">down</stem>
    <staff>2</staff>
    <beam number="1">end</beam>
  </note>
  <note default-x="124">
    <pitch>
      <step>G</step>
      <octave>3</octave>
    </pitch>
    <duration>1</duration>
    <voice>2</voice>
    <type>eighth</type>
    <stem default-y="-35">down</stem>
    <staff>2</staff>
    <beam number="1">begin</beam>
  </note>
  <note default-x="151">
    <pitch>
      <step>A</step>
      <octave>3</octave>
    </pitch>
    <duration>1</duration>
    <voice>2</voice>
    <type>eighth</type>
    <stem default-y="-34">down</stem>
    <staff>2</staff>
    <beam number="1">continue</beam>
  </note>
  <note default-x="178">
    <pitch>
      <step>B</step>
      <octave>3</octave>
    </pitch>
    <duration>1</duration>
    <voice>2</voice>
    <type>eighth</type>
    <stem default-y="-33">down</stem>
    <staff>2</staff>
    <beam number="1">continue</beam>
  </note>
  <note default-x="206">
    <pitch>
      <step>C</step>
      <octave>4</octave>
    </pitch>
    <duration>1</duration>
    <voice>2</voice>
    <type>eighth</type>
    <stem default-y="-32">down</stem>
    <staff>2</staff>
    <beam number="1">end</beam>
  </note>
</measure>
<!--=======================================================-->
<measure number="18" width="227">
  <print new-page="yes" page-number="2"/>
  <note default-x="53">
    <pitch>
      <step>D</step>
      <octave>5</octave>
    </pitch>
    <duration>4</duration>
    <voice>1</voice>
    <type>half</type>
    <stem default-y="-45.5">down</stem>
    <staff>1</staff>
  </note>
  <note default-x="140">
    <pitch>
      <step>D</step>
      <octave>5</octave>
    </pitch>
    <duration>4</duration>
    <voice>1</voice>
    <type>half</type>
    <stem default-y="-45.5">down</stem>
    <staff>1</staff>
  </note>
  <backup>
    <duration>8</duration>
  </backup>
  <note default-x="53">
    <pitch>
      <step>B</step>
      <octave>3</octave>
    </pitch>
    <duration>1</duration>
    <voice>2</voice>
    <type>eighth</type>
    <stem default-y="-40">down</stem>
    <staff>2</staff>
    <beam number="1">begin</beam>
  </note>
  <note default-x="75">
    <pitch>
      <step>A</step>
      <octave>3</octave>
    </pitch>
    <duration>1</duration>
    <voice>2</voice>
    <type>eighth</type>
    <stem default-y="-40">down</stem>
    <staff>2</staff>
    <beam number="1">continue</beam>
  </note>
  <note default-x="96">
    <pitch>
      <step>G</step>
      <octave>3</octave>
    </pitch>
    <duration>1</duration>
    <voice>2</voice>
    <type>eighth</type>
    <stem default-y="-40">down</stem>
    <staff>2</staff>
    <beam number="1">continue</beam>
  </note>
  <note default-x="118">
    <pitch>
      <step>A</step>
      <octave>3</octave>
    </pitch>
    <duration>1</duration>
    <voice>2</voice>
    <type>eighth</type>
    <stem default-y="-40">down</stem>
    <staff>2</staff>
    <beam number="1">end</beam>
  </note>
  <note default-x="140">
    <pitch>
      <step>G</step>
      <octave>3</octave>
    </pitch>
    <duration>1</duration>
    <voice>2</voice>
    <type>eighth</type>
    <stem default-y="-50">down</stem>
    <staff>2</staff>
    <beam number="1">begin</beam>
  </note>
  <note default-x="161">
    <pitch>
      <step>F</step>
      <octave>3</octave>
    </pitch>
    <duration>1</duration>
    <voice>2</voice>
    <type>eighth</type>
    <stem default-y="-50">down</stem>
    <staff>2</staff>
    <beam number="1">continue</beam>
  </note>
  <note default-x="183">
    <pitch>
      <step>E</step>
      <octave>3</octave>
    </pitch>
    <duration>1</duration>
    <voice>2</voice>
    <type>eighth</type>
    <stem default-y="-50">down</stem>
    <staff>2</staff>
    <beam number="1">continue</beam>
  </note>
  <note default-x="204">
    <pitch>
      <step>F</step>
      <octave>3</octave>
    </pitch>
    <duration>1</duration>
    <voice>2</voice>
    <type>eighth</type>
    <stem default-y="-50">down</stem>
    <staff>2</staff>
    <beam number="1">end</beam>
  </note>
</measure>
<!--=======================================================-->
<measure number="19" width="188">
  <note default-x="14">
    <pitch>
      <step>C</step>
      <octave>5</octave>
    </pitch>
    <duration>4</duration>
    <voice>1</voice>
    <type>half</type>
    <stem default-y="-50">down</stem>
    <staff>1</staff>
  </note>
  <note default-x="100">
    <pitch>
      <step>D</step>
      <octave>5</octave>
    </pitch>
    <duration>4</duration>
    <voice>1</voice>
    <type>half</type>
    <stem default-y="-45.5">down</stem>
    <staff>1</staff>
  </note>
  <backup>
    <duration>8</duration>
  </backup>
  <note default-x="14">
    <pitch>
      <step>E</step>
      <octave>3</octave>
    </pitch>
    <duration>1</duration>
    <voice>2</voice>
    <type>eighth</type>
    <stem default-y="-60">down</stem>
    <staff>2</staff>
    <beam number="1">begin</beam>
  </note>
  <note default-x="35">
    <pitch>
      <step>D</step>
      <octave>3</octave>
    </pitch>
    <duration>1</duration>
    <voice>2</voice>
    <type>eighth</type>
    <stem default-y="-60">down</stem>
    <staff>2</staff>
    <beam number="1">continue</beam>
  </note>
  <note default-x="57">
    <pitch>
      <step>E</step>
      <octave>3</octave>
    </pitch>
    <duration>1</duration>
    <voice>2</voice>
    <type>eighth</type>
    <stem default-y="-60">down</stem>
    <staff>2</staff>
    <beam number="1">continue</beam>
  </note>
  <note default-x="79">
    <pitch>
      <step>C</step>
      <octave>3</octave>
    </pitch>
    <duration>1</duration>
    <voice>2</voice>
    <type>eighth</type>
    <stem default-y="-60">down</stem>
    <staff>2</staff>
    <beam number="1">end</beam>
  </note>
  <note default-x="100">
    <pitch>
      <step>B</step>
      <octave>2</octave>
    </pitch>
    <duration>1</duration>
    <voice>2</voice>
    <type>eighth</type>
    <stem default-y="5">up</stem>
    <staff>2</staff>
    <beam number="1">begin</beam>
  </note>
  <note default-x="122">
    <pitch>
      <step>A</step>
      <octave>2</octave>
    </pitch>
    <duration>1</duration>
    <voice>2</voice>
    <type>eighth</type>
    <stem default-y="5">up</stem>
    <staff>2</staff>
    <beam number="1">continue</beam>
  </note>
  <note default-x="144">
    <pitch>
      <step>B</step>
      <octave>2</octave>
    </pitch>
    <duration>1</duration>
    <voice>2</voice>
    <type>eighth</type>
    <stem default-y="5">up</stem>
    <staff>2</staff>
    <beam number="1">continue</beam>
  </note>
  <note default-x="165">
    <pitch>
      <step>G</step>
      <octave>2</octave>
    </pitch>
    <duration>1</duration>
    <voice>2</voice>
    <type>eighth</type>
    <stem default-y="5">up</stem>
    <staff>2</staff>
    <beam number="1">end</beam>
  </note>
</measure>
<!--=======================================================-->
<measure number="20" width="192">
  <note default-x="14">
    <pitch>
      <step>E</step>
      <octave>5</octave>
    </pitch>
    <duration>4</duration>
    <voice>1</voice>
    <type>half</type>
    <stem default-y="-40">down</stem>
    <staff>1</staff>
  </note>
  <note default-x="105">
    <pitch>
      <step>C</step>
      <octave>5</octave>
    </pitch>
    <duration>4</duration>
    <voice>1</voice>
    <type>half</type>
    <stem default-y="-50">down</stem>
    <staff>1</staff>
  </note>
  <backup>
    <duration>8</duration>
  </backup>
  <note default-x="14">
    <pitch>
      <step>C</step>
      <octave>3</octave>
    </pitch>
    <duration>1</duration>
    <voice>2</voice>
    <type>eighth</type>
    <stem default-y="10">up</stem>
    <staff>2</staff>
    <beam number="1">begin</beam>
  </note>
  <note default-x="35">
    <pitch>
      <step>C</step>
      <octave>2</octave>
    </pitch>
    <duration>1</duration>
    <voice>2</voice>
    <type>eighth</type>
    <stem default-y="9">up</stem>
    <staff>2</staff>
    <beam number="1">continue</beam>
  </note>
  <note default-x="59">
    <pitch>
      <step>D</step>
      <octave>2</octave>
    </pitch>
    <duration>1</duration>
    <voice>2</voice>
    <type>eighth</type>
    <stem default-y="7">up</stem>
    <staff>2</staff>
    <beam number="1">continue</beam>
  </note>
  <note default-x="83">
    <pitch>
      <step>E</step>
      <octave>2</octave>
    </pitch>
    <duration>1</duration>
    <voice>2</voice>
    <type>eighth</type>
    <stem default-y="5">up</stem>
    <staff>2</staff>
    <beam number="1">end</beam>
  </note>
  <note default-x="105">
    <pitch>
      <step>F</step>
      <octave>2</octave>
    </pitch>
    <duration>1</duration>
    <voice>2</voice>
    <type>eighth</type>
    <stem default-y="0">up</stem>
    <staff>2</staff>
    <beam number="1">begin</beam>
  </note>
  <note default-x="126">
    <pitch>
      <step>G</step>
      <octave>2</octave>
    </pitch>
    <duration>1</duration>
    <voice>2</voice>
    <type>eighth</type>
    <stem default-y="2">up</stem>
    <staff>2</staff>
    <beam number="1">continue</beam>
  </note>
  <note default-x="148">
    <pitch>
      <step>A</step>
      <octave>2</octave>
    </pitch>
    <duration>1</duration>
    <voice>2</voice>
    <type>eighth</type>
    <stem default-y="3">up</stem>
    <staff>2</staff>
    <beam number="1">continue</beam>
  </note>
  <note default-x="170">
    <pitch>
      <step>B</step>
      <octave>2</octave>
    </pitch>
    <duration>1</duration>
    <voice>2</voice>
    <type>eighth</type>
    <stem default-y="5">up</stem>
    <staff>2</staff>
    <beam number="1">end</beam>
  </note>
</measure>
<!--=======================================================-->
<measure number="21" width="188">
  <note default-x="14">
    <pitch>
      <step>E</step>
      <octave>5</octave>
    </pitch>
    <duration>4</duration>
    <voice>1</voice>
    <type>half</type>
    <stem default-y="-40">down</stem>
    <staff>1</staff>
  </note>
  <note default-x="100">
    <pitch>
      <step>G</step>
      <octave>5</octave>
    </pitch>
    <duration>4</duration>
    <voice>1</voice>
    <type>half</type>
    <stem default-y="-30">down</stem>
    <staff>1</staff>
  </note>
  <backup>
    <duration>8</duration>
  </backup>
  <note default-x="14">
    <pitch>
      <step>C</step>
      <octave>3</octave>
    </pitch>
    <duration>1</duration>
    <voice>2</voice>
    <type>eighth</type>
    <stem default-y="-60">down</stem>
    <staff>2</staff>
    <beam number="1">begin</beam>
  </note>
  <note default-x="35">
    <pitch>
      <step>D</step>
      <octave>3</octave>
    </pitch>
    <duration>1</duration>
    <voice>2</voice>
    <type>eighth</type>
    <stem default-y="-58">down</stem>
    <staff>2</staff>
    <beam number="1">continue</beam>
  </note>
  <note default-x="57">
    <pitch>
      <step>E</step>
      <octave>3</octave>
    </pitch>
    <duration>1</duration>
    <voice>2</voice>
    <type>eighth</type>
    <stem default-y="-57">down</stem>
    <staff>2</staff>
    <beam number="1">continue</beam>
  </note>
  <note default-x="79">
    <pitch>
      <step>F</step>
      <octave>3</octave>
    </pitch>
    <duration>1</duration>
    <voice>2</voice>
    <type>eighth</type>
    <stem default-y="-55">down</stem>
    <staff>2</staff>
    <beam number="1">end</beam>
  </note>
  <note default-x="100">
    <pitch>
      <step>G</step>
      <octave>3</octave>
    </pitch>
    <duration>1</duration>
    <voice>2</voice>
    <type>eighth</type>
    <stem default-y="-35">down</stem>
    <staff>2</staff>
    <beam number="1">begin</beam>
  </note>
  <note default-x="122">
    <pitch>
      <step>A</step>
      <octave>3</octave>
    </pitch>
    <duration>1</duration>
    <voice>2</voice>
    <type>eighth</type>
    <stem default-y="-34">down</stem>
    <staff>2</staff>
    <beam number="1">continue</beam>
  </note>
  <note default-x="144">
    <pitch>
      <step>B</step>
      <octave>3</octave>
    </pitch>
    <duration>1</duration>
    <voice>2</voice>
    <type>eighth</type>
    <stem default-y="-33">down</stem>
    <staff>2</staff>
    <beam number="1">continue</beam>
  </note>
  <note default-x="165">
    <pitch>
      <step>C</step>
      <octave>4</octave>
    </pitch>
    <duration>1</duration>
    <voice>2</voice>
    <type>eighth</type>
    <stem default-y="-32">down</stem>
    <staff>2</staff>
    <beam number="1">end</beam>
  </note>
</measure>
<!--=======================================================-->
<measure number="22" width="189">
  <note default-x="14">
    <pitch>
      <step>D</step>
      <octave>5</octave>
    </pitch>
    <duration>4</duration>
    <voice>1</voice>
    <type>half</type>
    <stem default-y="-45.5">down</stem>
    <staff>1</staff>
  </note>
  <note default-x="101">
    <pitch>
      <step>D</step>
      <octave>5</octave>
    </pitch>
    <duration>4</duration>
    <voice>1</voice>
    <type>half</type>
    <stem default-y="-45.5">down</stem>
    <staff>1</staff>
  </note>
  <backup>
    <duration>8</duration>
  </backup>
  <note default-x="14">
    <pitch>
      <step>B</step>
      <octave>3</octave>
    </pitch>
    <duration>1</duration>
    <voice>2</voice>
    <type>eighth</type>
    <stem default-y="-40">down</stem>
    <staff>2</staff>
    <beam number="1">begin</beam>
  </note>
  <note default-x="35">
    <pitch>
      <step>A</step>
      <octave>3</octave>
    </pitch>
    <duration>1</duration>
    <voice>2</voice>
    <type>eighth</type>
    <stem default-y="-40">down</stem>
    <staff>2</staff>
    <beam number="1">continue</beam>
  </note>
  <note default-x="57">
    <pitch>
      <step>G</step>
      <octave>3</octave>
    </pitch>
    <duration>1</duration>
    <voice>2</voice>
    <type>eighth</type>
    <stem default-y="-40">down</stem>
    <staff>2</staff>
    <beam number="1">continue</beam>
  </note>
  <note default-x="79">
    <pitch>
      <step>A</step>
      <octave>3</octave>
    </pitch>
    <duration>1</duration>
    <voice>2</voice>
    <type>eighth</type>
    <stem default-y="-40">down</stem>
    <staff>2</staff>
    <beam number="1">end</beam>
  </note>
  <note default-x="101">
    <pitch>
      <step>G</step>
      <octave>3</octave>
    </pitch>
    <duration>1</duration>
    <voice>2</voice>
    <type>eighth</type>
    <stem default-y="-50">down</stem>
    <staff>2</staff>
    <beam number="1">begin</beam>
  </note>
  <note default-x="123">
    <pitch>
      <step>F</step>
      <octave>3</octave>
    </pitch>
    <duration>1</duration>
    <voice>2</voice>
    <type>eighth</type>
    <stem default-y="-50">down</stem>
    <staff>2</staff>
    <beam number="1">continue</beam>
  </note>
  <note default-x="144">
    <pitch>
      <step>E</step>
      <octave>3</octave>
    </pitch>
    <duration>1</duration>
    <voice>2</voice>
    <type>eighth</type>
    <stem default-y="-50">down</stem>
    <staff>2</staff>
    <beam number="1">continue</beam>
  </note>
  <note default-x="166">
    <pitch>
      <step>F</step>
      <octave>3</octave>
    </pitch>
    <duration>1</duration>
    <voice>2</voice>
    <type>eighth</type>
    <stem default-y="-50">down</stem>
    <staff>2</staff>
    <beam number="1">end</beam>
  </note>
</measure>
<!--=======================================================-->
<measure number="23" width="542">
  <print new-system="yes">
    <system-layout>
      <system-distance>114</system-distance>
    </system-layout>
  </print>
  <note default-x="53">
    <pitch>
      <step>C</step>
      <octave>5</octave>
    </pitch>
    <duration>4</duration>
    <voice>1</voice>
    <type>half</type>
    <stem default-y="-50">down</stem>
    <staff>1</staff>
  </note>
  <note default-x="297">
    <pitch>
      <step>D</step>
      <octave>5</octave>
    </pitch>
    <duration>4</duration>
    <voice>1</voice>
    <type>half</type>
    <stem default-y="-45">down</stem>
    <staff>1</staff>
    <notations>
      <ornaments>
        <trill-mark default-x="8" default-y="10" placement="above"/>
      </ornaments>
    </notations>
  </note>
  <backup>
    <duration>8</duration>
  </backup>
  <note default-x="53">
    <pitch>
      <step>E</step>
      <octave>3</octave>
    </pitch>
    <duration>1</duration>
    <voice>2</voice>
    <type>eighth</type>
    <stem default-y="-60">down</stem>
    <staff>2</staff>
    <beam number="1">begin</beam>
  </note>
  <note default-x="114">
    <pitch>
      <step>D</step>
      <octave>3</octave>
    </pitch>
    <duration>1</duration>
    <voice>2</voice>
    <type>eighth</type>
    <stem default-y="-60">down</stem>
    <staff>2</staff>
    <beam number="1">continue</beam>
  </note>
  <note default-x="175">
    <pitch>
      <step>E</step>
      <octave>3</octave>
    </pitch>
    <duration>1</duration>
    <voice>2</voice>
    <type>eighth</type>
    <stem default-y="-60">down</stem>
    <staff>2</staff>
    <beam number="1">continue</beam>
  </note>
  <note default-x="236">
    <pitch>
      <step>C</step>
      <octave>3</octave>
    </pitch>
    <duration>1</duration>
    <voice>2</voice>
    <type>eighth</type>
    <stem default-y="-60">down</stem>
    <staff>2</staff>
    <beam number="1">end</beam>
  </note>
  <note default-x="297">
    <pitch>
      <step>B</step>
      <octave>2</octave>
    </pitch>
    <duration>1</duration>
    <voice>2</voice>
    <type>eighth</type>
    <stem default-y="5">up</stem>
    <staff>2</staff>
    <beam number="1">begin</beam>
  </note>
  <note default-x="358">
    <pitch>
      <step>A</step>
      <octave>2</octave>
    </pitch>
    <duration>1</duration>
    <voice>2</voice>
    <type>eighth</type>
    <stem default-y="5">up</stem>
    <staff>2</staff>
    <beam number="1">continue</beam>
  </note>
  <note default-x="419">
    <pitch>
      <step>B</step>
      <octave>2</octave>
    </pitch>
    <duration>1</duration>
    <voice>2</voice>
    <type>eighth</type>
    <stem default-y="5">up</stem>
    <staff>2</staff>
    <beam number="1">continue</beam>
  </note>
  <note default-x="480">
    <pitch>
      <step>G</step>
      <octave>2</octave>
    </pitch>
    <duration>1</duration>
    <voice>2</voice>
    <type>eighth</type>
    <stem default-y="5">up</stem>
    <staff>2</staff>
    <beam number="1">end</beam>
  </note>
</measure>
<!--=======================================================-->
<measure number="24" width="441">
  <note default-x="13">
    <pitch>
      <step>C</step>
      <octave>5</octave>
    </pitch>
    <duration>8</duration>
    <voice>1</voice>
    <type>whole</type>
    <staff>1</staff>
  </note>
  <backup>
    <duration>8</duration>
  </backup>
  <note default-x="13">
    <pitch>
      <step>C</step>
      <octave>3</octave>
    </pitch>
    <duration>1</duration>
    <voice>2</voice>
    <type>eighth</type>
    <stem default-y="10">up</stem>
    <staff>2</staff>
    <beam number="1">begin</beam>
  </note>
  <note default-x="75">
    <pitch>
      <step>G</step>
      <octave>2</octave>
    </pitch>
    <duration>1</duration>
    <voice>2</voice>
    <type>eighth</type>
    <stem default-y="8">up</stem>
    <staff>2</staff>
    <beam number="1">continue</beam>
  </note>
  <note default-x="137">
    <pitch>
      <step>E</step>
      <octave>2</octave>
    </pitch>
    <duration>1</duration>
    <voice>2</voice>
    <type>eighth</type>
    <stem default-y="7">up</stem>
    <staff>2</staff>
    <beam number="1">continue</beam>
  </note>
  <note default-x="199">
    <pitch>
      <step>G</step>
      <octave>2</octave>
    </pitch>
    <duration>1</duration>
    <voice>2</voice>
    <type>eighth</type>
    <stem default-y="5">up</stem>
    <staff>2</staff>
    <beam number="1">end</beam>
  </note>
  <note default-x="261">
    <pitch>
      <step>C</step>
      <octave>2</octave>
    </pitch>
    <duration>4</duration>
    <voice>2</voice>
    <type>half</type>
    <stem default-y="-19.5">up</stem>
    <staff>2</staff>
  </note>
  <barline location="right">
    <bar-style>light-heavy</bar-style>
    <repeat direction="backward"/>
  </barline>
</measure>
</part>
<!--=========================================================-->
</score-partwise>

